<?xml version="1.0" encoding="UTF-8" standalone="no"?><!DOCTYPE svg PUBLIC "-//W3C//DTD SVG 1.1//EN" "http://www.w3.org/Graphics/SVG/1.1/DTD/svg11.dtd"><svg width="100%" height="100%" viewBox="0 0 59 81" version="1.1" xmlns="http://www.w3.org/2000/svg" xmlns:xlink="http://www.w3.org/1999/xlink" xml:space="preserve" xmlns:serif="http://www.serif.com/" style="fill-rule:evenodd;clip-rule:evenodd;stroke-linejoin:round;stroke-miterlimit:2;"><path d="M11.208,59.76l18.631,9.371l18.632,-9.371l0,-50.172l-37.263,0l0,50.172Zm18.631,15.212c-0.531,0 -1.063,-0.122 -1.547,-0.366l-20.778,-10.449c-1.168,-0.586 -1.894,-1.764 -1.894,-3.072l0,-53.646c0,-1.896 1.543,-3.439 3.439,-3.439l41.56,0c1.897,0 3.44,1.543 3.44,3.439l0,53.646c0,1.308 -0.726,2.486 -1.895,3.073l-20.78,10.449c-0.483,0.244 -1.014,0.365 -1.545,0.365Z" style="fill:#fff;fill-rule:nonzero;"/><path d="M50.1,60.051c-0.001,0 -0.002,0 -0.002,0.001l0.002,-0.001Zm-39.884,0.321l19.623,9.868l19.623,-9.868l0,-51.776l-39.246,0l0,51.776Zm19.623,13.609c-0.378,0 -0.756,-0.086 -1.101,-0.26l-20.779,-10.449c-0.831,-0.418 -1.348,-1.256 -1.348,-2.187l0,-53.646c0,-1.35 1.098,-2.448 2.448,-2.448l41.56,0c1.35,0 2.448,1.098 2.448,2.448l0,53.646c0,0.93 -0.516,1.768 -1.348,2.187l-20.78,10.449c-0.344,0.174 -0.722,0.26 -1.1,0.26Z" style="fill:#f74141;fill-rule:nonzero;"/><path d="M50.909,61.662l-20.78,10.449c-0.182,0.092 -0.398,0.092 -0.58,0l-20.78,-10.449c-0.218,-0.111 -0.355,-0.333 -0.355,-0.577l0,-53.646c0,-0.356 0.289,-0.645 0.645,-0.645l41.56,0c0.357,0 0.646,0.289 0.646,0.645l0,53.646c0,0.244 -0.138,0.466 -0.356,0.577Z" style="fill:#172b44;fill-rule:nonzero;"/><path d="M9.059,5.819c-0.893,0 -1.62,0.727 -1.62,1.62l0,53.646c0,0.616 0.342,1.171 0.893,1.447l20.78,10.45c0.449,0.226 1.006,0.226 1.455,0l20.78,-10.45c0.55,-0.277 0.892,-0.832 0.892,-1.447l0,-53.646c0,-0.893 -0.727,-1.62 -1.62,-1.62l-41.56,0Zm20.78,68.245c-0.392,0 -0.785,-0.094 -1.135,-0.269l-20.781,-10.451c-0.859,-0.431 -1.393,-1.297 -1.393,-2.259l0,-53.646c0,-1.394 1.135,-2.529 2.529,-2.529l41.56,0c1.395,0 2.529,1.135 2.529,2.529l0,53.646c0,0.961 -0.533,1.827 -1.392,2.259l-20.78,10.45c-0.351,0.176 -0.744,0.27 -1.137,0.27Z" style="fill:#172b44;fill-rule:nonzero;"/><g><clipPath id="_clip1"><path d="M50.909,61.662l-20.78,10.449c-0.182,0.092 -0.398,0.092 -0.58,0l-20.78,-10.449c-0.218,-0.111 -0.355,-0.333 -0.355,-0.577l0,-53.646c0,-0.356 0.289,-0.645 0.645,-0.645l41.56,0c0.357,0 0.646,0.289 0.646,0.645l0,53.646c0,0.244 -0.138,0.466 -0.356,0.577Z"/></clipPath><g clip-path="url(#_clip1)"><path d="M2.715,65.559c-0.4,-0.76 -0.699,-1.418 -0.894,-2.264c-0.224,-0.977 -0.3,-1.599 -0.258,-2.319c0.331,0.512 0.69,1.008 1.072,1.481c0.012,0.408 0.01,0.769 0.01,1.095c-0.002,0.627 -0.003,1.221 0.07,2.007Zm0.63,5.198c0.037,-0.091 0.076,-0.181 0.113,-0.269l0.013,-0.027c0.388,-0.9 0.827,-1.919 0.057,-3.386c-0.056,-0.107 -0.112,-0.211 -0.165,-0.312c0.283,0.208 0.663,0.382 1.147,0.528c0.008,0.078 0.017,0.154 0.027,0.229c0.008,0.064 0.015,0.124 0.021,0.18c0.009,0.09 0.027,0.259 0.136,0.454c-0.059,0.095 -0.086,0.207 -0.074,0.321l0.019,0.19c0.02,0.192 0.04,0.375 0.056,0.52l0.019,0.176c0.03,0.29 0.149,0.683 0.755,1.021c-0.173,0.047 -0.329,0.149 -0.441,0.294l-0.587,0.768c-0.272,-0.121 -0.551,-0.183 -0.83,-0.183c-0.126,0 -0.252,0.013 -0.378,0.038c0.015,-0.295 0.108,-0.534 0.112,-0.542Zm32.986,0.717l0,-0.001c-0.026,-0.118 -0.666,-2.86 -4.547,-4.061c0.277,-0.353 0.286,-0.665 0.264,-0.882l-0.007,-0.077c-0.01,-0.134 -0.026,-0.336 -0.078,-0.654l-0.031,-0.19c-0.013,-0.082 -0.046,-0.159 -0.096,-0.224c0.075,-0.21 0.069,-0.391 0.056,-0.516c-0.006,-0.058 -0.011,-0.119 -0.016,-0.184c0.089,-0.039 0.174,-0.078 0.255,-0.117c1.283,-0.616 1.841,-1.275 1.758,-2.077c-0.072,-0.692 -0.072,-0.692 -0.086,-0.806c-0.01,-0.081 -0.027,-0.221 -0.084,-0.727c0.301,-0.308 0.497,-0.767 0.527,-1.248c0.026,-0.403 -0.065,-0.78 -0.265,-1.097c0.739,-2.036 1.092,-4.18 1.049,-6.372c-0.06,-3.048 -0.908,-6.043 -2.454,-8.659c-1.493,-2.528 -3.613,-4.661 -6.137,-6.177c-0.126,-0.751 -0.859,-1.291 -1.468,-1.532c-0.8,-0.316 -1.58,-0.244 -2.114,0.188c-4.587,-2.04 -9.808,-1.963 -14.343,0.216c-4.269,2.051 -7.52,5.828 -8.924,10.368l-2.705,2.674c-0.142,0.141 -0.233,0.326 -0.258,0.525l-1.002,8.001c-0.06,0.473 0.261,0.908 0.729,0.99l0.054,0.009c0.102,0.51 0.403,0.94 0.879,1.254c-0.184,0.922 -0.305,1.991 -0.042,3.489c0.229,1.307 0.719,2.198 1.341,3.326l0.009,0.017c0.147,0.267 0.313,0.568 0.488,0.902c0.388,0.738 0.224,1.113 -0.104,1.859c-0.175,0.396 -0.372,0.845 -0.501,1.406c-0.201,0.866 -0.073,1.721 0.379,2.544l0.018,0.033c0.324,0.577 0.738,1.006 1.056,1.282c-0.128,0.651 0.025,1.252 0.456,1.786c-0.152,0.2 -0.203,0.455 -0.143,0.698l1.693,6.803c0.09,0.363 0.428,0.628 0.803,0.628l0.021,0c0.117,-0.003 0.231,-0.03 0.338,-0.081c0.235,-0.113 0.404,-0.334 0.454,-0.588c0.007,-0.038 0.77,-3.81 2.398,-5.548c1.536,-1.64 4.011,-2.718 7.348,-3.203c1.216,-0.125 2.469,-0.134 6.519,0.941l0.03,0.014c0.079,0.034 0.167,0.048 0.255,0.039c0.072,-0.008 7.334,-0.705 13.979,3.715c0.161,0.107 0.365,0.114 0.532,0.017c0.167,-0.096 0.263,-0.276 0.251,-0.469c-0.013,-0.22 -0.215,-1.323 -2.649,-3.728c0.023,-0.009 0.046,-0.018 0.068,-0.031c0.182,-0.1 0.285,-0.306 0.257,-0.511c-0.015,-0.109 -0.083,-0.383 -0.389,-0.839c0.368,0.129 0.983,0.433 1.941,1.139c0.184,0.136 0.438,0.131 0.616,-0.013c0.179,-0.143 0.238,-0.39 0.145,-0.599c-0.013,-0.028 -0.157,-0.345 -0.439,-0.772c0.066,0.004 0.133,-0.005 0.197,-0.028c0.206,-0.072 0.342,-0.268 0.337,-0.486c0,-0.043 -0.027,-1.036 -0.593,-1.999c0.054,-0.185 0.116,-0.507 0.057,-0.898c0.384,0.257 0.73,0.576 1.03,0.953c0.147,0.185 0.399,0.243 0.611,0.141c0.213,-0.101 0.327,-0.332 0.277,-0.563Z" style="fill:#5ec5ea;fill-rule:nonzero;"/><path d="M2.861,72.03c0.576,-0.301 1.126,-0.26 1.678,0.122l0.05,0.036l0.892,-1.166c0.055,-0.072 0.146,-0.11 0.237,-0.098c0.028,0.002 0.696,0.079 1.053,-0.597l0.04,-0.074l-0.082,-0.02c-1.386,-0.329 -1.432,-0.767 -1.448,-0.931l-0.02,-0.178c-0.014,-0.136 -0.035,-0.323 -0.055,-0.518l-0.015,-0.141l0.131,-0.057c0.082,-0.036 0.147,-0.085 0.188,-0.148l0.036,-0.054l-0.054,-0.035c-0.335,-0.218 -0.356,-0.42 -0.367,-0.529c-0.007,-0.063 -0.015,-0.131 -0.024,-0.201c-0.021,-0.171 -0.043,-0.352 -0.052,-0.547l-0.002,-0.049l-0.047,-0.01c-1.454,-0.362 -1.668,-0.843 -1.702,-1.174c-0.087,-0.838 -0.086,-1.455 -0.084,-2.11c0.001,-0.372 0.002,-0.792 -0.015,-1.284l-0.001,-0.021l-0.013,-0.018c-0.623,-0.753 -1.183,-1.567 -1.663,-2.42l-0.041,-0.073l-0.06,0.059c-0.095,0.092 -0.194,0.168 -0.303,0.229l-0.027,0.016l-0.005,0.031c-0.177,1.248 -0.139,1.968 0.18,3.353c0.266,1.154 0.7,1.955 1.3,3.063l0.011,0.02c0.14,0.259 0.289,0.535 0.446,0.834c0.645,1.225 0.295,2.037 -0.075,2.895c-0.045,0.103 -0.088,0.202 -0.13,0.304c-0.013,0.031 -0.311,0.768 -0.047,1.457l0.026,0.067l0.064,-0.033Zm-0.114,12.272c-0.12,0.002 -0.228,-0.08 -0.257,-0.197l-1.693,-6.802c-0.019,-0.077 -0.003,-0.157 0.045,-0.219l0.293,-0.383l-0.043,-0.04c-0.602,-0.556 -0.77,-1.151 -0.529,-1.871l0.016,-0.044l-0.038,-0.029c-0.275,-0.206 -0.793,-0.652 -1.168,-1.322l-0.017,-0.027c-0.382,-0.697 -0.491,-1.418 -0.324,-2.143c0.117,-0.509 0.304,-0.931 0.468,-1.305c0.35,-0.796 0.603,-1.372 0.087,-2.354c-0.178,-0.34 -0.351,-0.652 -0.503,-0.928c-0.595,-1.082 -1.065,-1.936 -1.278,-3.15c-0.255,-1.45 -0.138,-2.502 0.114,-3.635l0.012,-0.05l-0.047,-0.022c-0.648,-0.306 -0.957,-0.753 -0.945,-1.365l0.001,-0.056l-0.487,-0.086c-0.169,-0.03 -0.286,-0.187 -0.264,-0.358l1.002,-8.002c0.009,-0.071 0.042,-0.139 0.094,-0.19l2.807,-2.775l0.004,-0.016c1.338,-4.443 4.496,-8.14 8.664,-10.143c4.499,-2.161 9.668,-2.184 14.183,-0.063l0.049,0.023l0.031,-0.044c0.341,-0.476 1.007,-0.592 1.738,-0.303c0.576,0.227 1.174,0.729 1.124,1.294l-0.004,0.04l0.035,0.021c5.231,3.033 8.425,8.451 8.543,14.495c0.044,2.214 -0.329,4.374 -1.108,6.421l-0.015,0.038l0.028,0.029c0.225,0.239 0.336,0.57 0.313,0.933c-0.028,0.432 -0.239,0.839 -0.525,1.013l-0.035,0.022l0.005,0.041c0.082,0.734 0.103,0.911 0.115,1.005c0.013,0.111 0.014,0.115 0.084,0.794c0.035,0.333 -0.077,0.852 -1.437,1.505c-0.171,0.082 -0.362,0.166 -0.567,0.249l-0.045,0.019l0.005,0.049c0.012,0.111 0.02,0.219 0.028,0.317c0.006,0.086 0.012,0.165 0.02,0.239c0.011,0.112 0.032,0.32 -0.271,0.612l-0.045,0.043l0.041,0.047c0.053,0.058 0.114,0.091 0.184,0.101l0.143,0.019l0.023,0.141c0.048,0.297 0.063,0.485 0.073,0.609c0.003,0.042 0.005,0.067 0.007,0.089c0.016,0.151 0.053,0.505 -0.83,1.004l-0.149,0.084l0.168,0.036c3.553,0.748 4.69,2.793 5.001,3.574c-1.1,-1.213 -2.361,-1.452 -2.375,-1.454l-0.213,-0.038l0.157,0.148c1.002,0.95 0.516,1.883 0.495,1.923l-0.019,0.034l0.023,0.033c0.45,0.653 0.585,1.379 0.625,1.721c-0.473,-0.526 -1.326,-1.162 -1.452,-1.256c-0.816,-1.886 -1.773,-1.788 -1.814,-1.782l-0.149,0.018l0.116,0.095c1.145,0.936 1.325,2.305 1.326,2.319l0.004,0.029l0.024,0.016c0.958,0.645 1.554,1.592 1.793,2.029c-1.822,-1.299 -2.518,-1.214 -2.694,-1.153c-0.655,-0.568 -1.15,-0.684 -1.171,-0.689l-0.238,-0.053l0.181,0.164c1.068,0.974 1.464,1.606 1.607,1.91c-3.486,-2.932 -4.257,-2.717 -4.344,-2.675c0,0 -0.001,0.001 -0.002,0.001l-0.091,0.047l0.081,0.061c5.534,4.248 6.539,6.317 6.718,6.86c-6.62,-4.33 -13.795,-3.753 -14.198,-3.717l-0.051,-0.022c-4.184,-1.114 -5.495,-1.102 -6.775,-0.971c-3.482,0.506 -6.072,1.643 -7.7,3.381c-1.758,1.875 -2.534,5.787 -2.541,5.828c-0.023,0.115 -0.129,0.205 -0.247,0.209Z" style="fill:#fff;fill-rule:nonzero;"/><path d="M18.951,56.908l-6.307,-1.912c-0.17,-0.052 -0.351,0.045 -0.402,0.216c-0.052,0.17 0.044,0.35 0.215,0.402l6.236,1.89c-0.382,0.717 -0.988,1.324 -1.777,1.703c-1.971,0.947 -4.337,0.117 -5.284,-1.855c-0.554,-1.154 -0.499,-2.443 0.037,-3.504l7.463,2.262c-0.032,0.272 -0.093,0.539 -0.181,0.798Z" style="fill:#172b44;fill-rule:nonzero;"/><path d="M15.247,51.678c-0.034,0.433 0.331,0.87 0.876,1.014c0.513,0.136 1.016,-0.032 1.228,-0.381c0.54,0.349 1.003,0.833 1.328,1.434l-5.318,-1.613c0.041,-0.021 0.083,-0.043 0.125,-0.064c0.569,-0.272 1.171,-0.397 1.761,-0.39Z" style="fill:#172b44;fill-rule:nonzero;"/><path d="M19.089,54.882l-6.702,-2.031c0.161,-0.163 0.339,-0.312 0.531,-0.448l5.977,1.812c0.085,0.219 0.15,0.443 0.194,0.667Z" style="fill:#172b44;fill-rule:nonzero;"/><path d="M12.237,37.17c1.021,-0.313 2.088,-0.492 3.159,-0.532c1.072,-0.041 2.149,0.056 3.191,0.289c1.041,0.236 2.053,0.602 2.97,1.13c-1.032,-0.228 -2.049,-0.42 -3.071,-0.531c-1.02,-0.114 -2.041,-0.153 -3.06,-0.114c-1.019,0.039 -2.033,0.157 -3.042,0.349c-1.01,0.19 -2.008,0.46 -3.021,0.766c0.874,-0.598 1.853,-1.042 2.874,-1.357Z" style="fill:#172b44;fill-rule:nonzero;"/><path d="M14.397,38.107c0.638,-0.128 1.29,-0.185 1.939,-0.18c0.651,0.005 1.3,0.071 1.935,0.197c0.635,0.13 1.26,0.312 1.847,0.588c-0.644,-0.068 -1.273,-0.141 -1.902,-0.187c-0.629,-0.049 -1.257,-0.077 -1.883,-0.082c-0.626,-0.004 -1.252,0.016 -1.879,0.067c-0.628,0.046 -1.253,0.13 -1.893,0.227c0.573,-0.303 1.199,-0.499 1.836,-0.63Z" style="fill:#172b44;fill-rule:nonzero;"/><path d="M2.978,81.909l-0.957,-3.973l2.298,0.98c0.094,-0.151 0.192,-0.296 0.294,-0.437l-2.554,-1.088l2.922,-4.76l-3.465,4.529l-0.118,0.153l0.1,0.401l1.24,4.982c0.068,-0.24 0.148,-0.506 0.24,-0.787Zm23.567,-6.412c-0.754,-1.072 -1.98,-2.033 -1.98,-2.033c1.016,0.275 2.556,1.542 3.031,1.885c0.476,0.345 4.139,1.856 4.139,1.856c-3.888,-3.074 -6.258,-4.18 -6.258,-4.18c-4.059,-1.44 -8.535,-1.415 -8.535,-1.415c5.278,0.998 6.264,1.957 6.264,1.957c-5.874,-1.643 -9.513,-1.064 -9.513,-1.064c4.881,0.616 6.473,1.546 6.473,1.546c-7.395,-1.032 -9.478,-0.199 -9.478,-0.199c0.306,0.006 0.593,0.016 0.864,0.029c1.494,-0.074 4.598,0.341 8.692,1.436c2.596,-0.412 6.301,0.182 6.301,0.182Zm0.327,-4.558c0.047,-0.004 0.053,-0.005 0.084,-0.004c0.025,0 0.054,0.003 0.084,0.007c0.119,0.017 0.248,0.071 0.383,0.113c0.137,0.04 0.285,0.069 0.431,0.108c0.149,0.036 0.3,0.072 0.456,0.1c0.154,0.027 0.318,0.053 0.477,0.029c-0.144,-0.063 -0.264,-0.154 -0.391,-0.24c-0.12,-0.084 -0.241,-0.168 -0.366,-0.25c0.13,-0.086 0.25,-0.172 0.367,-0.254c0.132,-0.089 0.262,-0.174 0.402,-0.23c0.14,-0.06 0.282,-0.102 0.462,-0.126c-0.141,-0.117 -0.343,-0.148 -0.524,-0.125c-0.183,0.025 -0.357,0.083 -0.518,0.15c-0.162,0.066 -0.312,0.148 -0.455,0.209c-0.071,0.03 -0.14,0.059 -0.2,0.076c-0.028,0.009 -0.052,0.012 -0.072,0.014c-0.118,-0.038 -0.244,-0.063 -0.381,-0.085c-0.046,-0.006 -0.092,-0.01 -0.143,-0.011c-0.045,-0.002 -0.114,0.003 -0.143,0.005c-0.074,0.007 -0.148,0.013 -0.221,0.023c-0.145,0.016 -0.289,0.042 -0.433,0.063c-0.144,0.02 -0.287,0.037 -0.431,0.039c-0.144,0.002 -0.288,-0.006 -0.435,-0.069c0.082,0.141 0.235,0.236 0.385,0.303c0.153,0.065 0.313,0.106 0.473,0.133c0.159,0.026 0.319,0.041 0.476,0.037c0.078,-0.001 0.156,-0.008 0.233,-0.015Zm4.16,-4.305c-0.003,-0.028 -0.006,-0.061 -0.009,-0.1c-0.007,-0.093 -0.017,-0.223 -0.044,-0.41c-0.12,-0.052 -0.215,-0.135 -0.29,-0.227c-0.142,0.09 -0.313,0.184 -0.517,0.282c-0.567,0.273 -1.394,0.577 -2.597,0.905c-2.409,0.655 -5.643,1.214 -9.104,1.572c-3.462,0.358 -6.741,0.475 -9.234,0.327c-1.716,-0.101 -2.72,-0.308 -3.313,-0.531c-0.058,0.107 -0.143,0.201 -0.251,0.276c0.014,0.131 0.027,0.251 0.037,0.347l0.02,0.181c0.023,0.225 0.825,0.696 3.693,0.862c0.848,0.05 1.791,0.067 2.802,0.056c-0.959,-0.018 -1.917,-0.071 -2.872,-0.152c-0.247,-0.023 -0.493,-0.052 -0.739,-0.08c-0.245,-0.035 -0.491,-0.065 -0.735,-0.109c-0.488,-0.082 -0.974,-0.193 -1.447,-0.34c0.985,0.096 1.962,0.159 2.943,0.204c0.98,0.052 1.963,0.06 2.945,0.059c0.155,-0.001 0.309,-0.003 0.464,-0.005c-0.174,-0.001 -0.348,-0.001 -0.522,-0.003c-0.989,-0.012 -1.976,-0.06 -2.963,-0.134l-0.738,-0.072c-0.246,-0.035 -0.492,-0.061 -0.736,-0.102c-0.489,-0.076 -0.976,-0.18 -1.45,-0.318c0.985,0.079 1.962,0.13 2.944,0.166c0.98,0.043 1.962,0.046 2.944,0.039c1.727,-0.021 3.455,-0.091 5.174,-0.244c-0.215,0.105 -0.351,0.278 -0.325,0.455c0.035,0.246 0.369,0.402 0.746,0.347c0.376,-0.054 0.653,-0.298 0.617,-0.544c-0.022,-0.153 -0.158,-0.27 -0.347,-0.325c0.004,0 0.008,-0.001 0.012,-0.001c1.954,-0.203 3.903,-0.458 5.836,-0.794c0.966,-0.168 1.929,-0.356 2.882,-0.575c0.579,-0.133 1.187,-0.306 1.776,-0.503c-0.001,-0.001 -0.003,-0.003 -0.003,-0.003c0,0 0.132,-0.041 0.33,-0.109c0.267,-0.094 0.527,-0.191 0.778,-0.292l0,0.002c0.282,-0.114 0.56,-0.242 0.757,-0.365c0,0 0.116,0.492 -0.014,0.794c0.421,-0.245 0.56,-0.432 0.55,-0.536Zm-0.156,-1.66c-0.008,-0.079 -0.015,-0.163 -0.021,-0.253c-0.004,-0.053 -0.009,-0.11 -0.014,-0.165c-0.513,0.187 -1.127,0.382 -1.86,0.583c-2.747,0.758 -6.432,1.4 -10.377,1.809c-3.944,0.408 -7.683,0.535 -10.526,0.357c-1.078,-0.067 -1.915,-0.17 -2.569,-0.294c0.011,0.132 0.026,0.258 0.04,0.373c0.01,0.075 0.018,0.145 0.025,0.211c0.024,0.228 0.826,0.703 3.694,0.872c0.963,0.057 2.046,0.074 3.212,0.052c-0.054,0 -0.108,0 -0.163,-0.001c-0.989,-0.012 -1.978,-0.063 -2.965,-0.143c-0.247,-0.023 -0.493,-0.05 -0.739,-0.077c-0.245,-0.035 -0.491,-0.065 -0.735,-0.108c-0.489,-0.08 -0.975,-0.188 -1.448,-0.334c0.986,0.092 1.962,0.152 2.944,0.193c0.98,0.049 1.962,0.054 2.944,0.049c0.155,-0.002 0.309,-0.005 0.464,-0.007c-0.174,0 -0.348,0 -0.522,-0.001c-0.988,-0.008 -1.976,-0.053 -2.963,-0.124l-0.739,-0.069c-0.246,-0.033 -0.491,-0.058 -0.736,-0.098c-0.489,-0.075 -0.976,-0.176 -1.451,-0.314c0.986,0.076 1.963,0.123 2.944,0.155c0.981,0.04 1.963,0.039 2.945,0.03c1.727,-0.028 3.454,-0.104 5.174,-0.264c-0.216,0.106 -0.351,0.28 -0.325,0.456c0.037,0.247 0.371,0.401 0.748,0.346c0.376,-0.056 0.651,-0.301 0.615,-0.547c-0.023,-0.153 -0.159,-0.269 -0.348,-0.323c0.003,0 0.008,-0.001 0.012,-0.001c1.953,-0.21 3.902,-0.473 5.833,-0.815c0.966,-0.172 3.014,-0.512 5.732,-1.352l0.001,0.001c0.235,-0.079 0.473,-0.158 0.648,-0.217c0,0 0.075,0.277 0.019,0.535c0.388,-0.234 0.517,-0.414 0.507,-0.515Zm-28.983,-9.797c0.107,0.39 0.396,0.65 0.644,0.582c0.248,-0.069 0.362,-0.441 0.254,-0.831c-0.108,-0.388 -0.396,-0.649 -0.645,-0.58c-0.248,0.069 -0.361,0.44 -0.253,0.829Zm-0.272,-2.063c0.147,-0.04 0.227,-0.213 0.179,-0.385c-0.047,-0.172 -0.205,-0.278 -0.352,-0.238c-0.147,0.041 -0.227,0.214 -0.179,0.386c0.047,0.172 0.205,0.278 0.352,0.237Zm30.995,9.509c-0.07,-0.672 -0.07,-0.672 -0.083,-0.782c-0.011,-0.084 -0.028,-0.231 -0.09,-0.778c-1.458,0.53 -4.141,1.111 -7.515,0.845l-0.082,-0.007l-0.072,-0.038c-0.121,-0.065 -2.838,-1.539 -4.735,-3.251c-0.552,0.899 -1.357,1.657 -2.377,2.147c-0.196,0.094 -0.394,0.174 -0.594,0.244c0.109,-0.011 0.219,-0.024 0.328,-0.039c0.262,-0.039 0.522,-0.1 0.78,-0.177c0.261,-0.073 0.521,-0.157 0.798,-0.229c-0.271,0.28 -0.596,0.49 -0.945,0.662c0.251,-0.025 0.502,-0.059 0.751,-0.107c0.299,-0.055 0.596,-0.118 0.907,-0.181c-0.245,0.202 -0.525,0.356 -0.815,0.482c-0.06,0.024 -0.119,0.048 -0.179,0.071c0.229,-0.015 0.458,-0.034 0.687,-0.06c0.337,-0.036 0.673,-0.076 1.019,-0.119c-0.295,0.189 -0.623,0.321 -0.954,0.427c-0.027,0.009 -0.055,0.015 -0.083,0.024c0.206,-0.007 0.412,-0.016 0.618,-0.028l1.132,-0.05c-0.347,0.165 -0.717,0.273 -1.088,0.362c-0.28,0.064 -0.563,0.119 -0.846,0.171c1.136,-0.004 2.274,-0.05 3.419,-0.076c-0.742,0.171 -1.494,0.281 -2.249,0.372c-0.755,0.085 -1.514,0.145 -2.275,0.186c-0.599,0.033 -1.2,0.048 -1.803,0.047c-5.253,0.21 -9.215,-0.248 -11.32,-0.871c-0.244,-0.29 -0.507,-0.609 -0.778,-0.956c0.375,0.17 0.734,0.19 1.009,0.022c0.629,-0.385 0.579,-1.612 -0.112,-2.741c-0.691,-1.129 -1.761,-1.731 -2.39,-1.347c-0.306,0.188 -0.45,0.575 -0.439,1.052c-1.276,-2.545 -2.095,-5.95 -1.02,-10.393c0.015,-0.067 0.033,-0.133 0.049,-0.201c0.016,-0.063 0.033,-0.127 0.05,-0.19c0.031,-0.117 0.061,-0.234 0.095,-0.351c0.025,-0.087 0.049,-0.173 0.075,-0.261c0,0 0.002,0.003 0.005,0.011c0.093,-0.292 0.194,-0.582 0.311,-0.865c0.318,-0.778 0.721,-1.514 1.194,-2.196c0.471,-0.684 1.006,-1.316 1.589,-1.892c0.583,-0.577 1.222,-1.093 1.898,-1.543c-0.625,0.519 -1.198,1.094 -1.707,1.717c-0.509,0.623 -0.96,1.289 -1.34,1.987c-0.381,0.699 -0.686,1.433 -0.904,2.186c-0.164,0.564 -0.281,1.139 -0.351,1.716c0.089,-0.452 0.213,-0.894 0.369,-1.32c0.219,-0.596 0.496,-1.165 0.82,-1.699c0.323,-0.534 0.694,-1.036 1.108,-1.492c-0.672,1.031 -1.137,2.179 -1.369,3.35c-0.128,0.647 -0.173,1.303 -0.138,1.945l0,-0.039c0.03,-0.757 0.178,-1.501 0.438,-2.196c0.255,-0.696 0.637,-1.339 1.115,-1.882c-0.393,0.608 -0.663,1.281 -0.805,1.973c-0.147,0.692 -0.178,1.398 -0.102,2.084c0.075,0.688 0.255,1.355 0.516,1.983c0.265,0.609 0.606,1.179 0.988,1.716c0.854,0.772 1.875,1.445 3.078,1.867c0,0 1.727,-1.521 3.114,-2.422c0.412,-0.387 0.889,-0.719 1.425,-0.977c1.347,-0.646 2.825,-0.713 4.151,-0.298c1.116,-3.231 3.867,-8.961 5.209,-11.755c0.213,-0.446 0.392,-0.817 0.526,-1.1c-4.324,-2.026 -9.24,-2.008 -13.559,0.067c-7.861,3.778 -11.185,13.247 -7.408,21.108c0.578,1.203 1.426,2.503 2.277,3.514c0.023,0.558 -0.011,1.065 -0.013,1.499c-0.002,0.664 -0.003,1.235 0.08,2.037c0.011,0.109 0.314,0.36 1.3,0.586c-0.225,-0.225 -0.578,-0.654 -0.584,-1.131c-0.01,-0.766 -0.056,-2.391 -0.056,-2.391c0,0 1.79,0.592 5.785,0.793c1.14,0.058 2.606,0.124 4.247,0.111l0,0.004c0.655,-0.003 1.328,-0.009 1.683,-0.007c0.67,0.002 1.34,-0.004 2.011,-0.039c-0.652,0.163 -1.313,0.298 -1.975,0.425c-0.331,0.063 -0.661,0.123 -0.991,0.182c0.317,0.007 0.636,0.011 0.954,0.012c0.674,0.002 1.348,-0.005 2.022,-0.043c-0.655,0.166 -1.32,0.302 -1.986,0.429c-0.331,0.063 -0.664,0.122 -0.997,0.179c0.32,0.009 0.64,0.014 0.96,0.016c0.677,0.002 1.355,-0.008 2.034,-0.049c-0.66,0.168 -1.328,0.308 -1.999,0.434c-0.331,0.063 -0.664,0.121 -0.997,0.176c0.319,0.01 0.64,0.017 0.961,0.019c0.681,0.004 1.362,-0.011 2.045,-0.054c-0.663,0.17 -1.335,0.314 -2.01,0.439c-0.333,0.062 -0.668,0.12 -1.003,0.172c0.321,0.013 0.644,0.02 0.967,0.023c0.684,0.005 1.37,-0.014 2.057,-0.059c-0.667,0.173 -1.342,0.32 -2.023,0.444c-0.341,0.063 -0.682,0.12 -1.027,0.17c-0.068,0.01 -0.136,0.02 -0.205,0.03c1.087,-0.071 2.208,-0.164 3.347,-0.282c1.382,-0.143 2.728,-0.315 4.014,-0.51c-0.182,0.003 -0.364,0.007 -0.546,0.008c-0.626,0.007 -1.252,0.009 -1.876,-0.006c0.614,-0.114 1.223,-0.244 1.832,-0.378c0.134,-0.03 0.267,-0.061 0.401,-0.091c-0.141,-0.001 -0.282,-0.002 -0.423,-0.003c-0.639,-0.009 -1.278,-0.024 -1.915,-0.059c0.631,-0.094 1.257,-0.208 1.881,-0.328c0.134,-0.025 0.268,-0.053 0.401,-0.079c-0.144,-0.005 -0.289,-0.008 -0.433,-0.014c-0.652,-0.024 -1.305,-0.055 -1.953,-0.109c0.646,-0.075 1.288,-0.173 1.929,-0.276c0.134,-0.023 0.268,-0.046 0.401,-0.069c-0.148,-0.007 -0.296,-0.014 -0.443,-0.023c-0.666,-0.04 -1.332,-0.088 -1.992,-0.162c0.662,-0.055 1.32,-0.137 1.977,-0.225c0.134,-0.018 0.267,-0.039 0.401,-0.057c-0.151,-0.012 -0.302,-0.022 -0.452,-0.034c-0.679,-0.055 -1.358,-0.119 -2.031,-0.214c0.678,-0.034 1.352,-0.099 2.025,-0.173c0.602,-0.067 2.891,-0.268 3.843,-0.376c0.718,-0.092 1.413,-0.195 2.069,-0.304l0.292,1.92c0.291,-0.073 0.576,-0.147 0.849,-0.222c0.096,-0.026 0.189,-0.052 0.281,-0.079l-0.278,-1.825c0.61,-0.117 1.172,-0.241 1.671,-0.367l0.252,1.657c0.132,-0.049 0.255,-0.098 0.37,-0.145l-0.245,-1.611c0.257,-0.069 0.493,-0.14 0.707,-0.21c0.083,0.457 0.177,1.167 0.222,1.509c0.68,-0.35 0.871,-0.602 0.861,-0.699Zm1.134,-10.357c-0.115,-5.86 -3.319,-11.172 -8.409,-14.021c-0.076,0.156 -0.165,0.337 -0.264,0.54c1.138,0.668 2.192,1.467 3.14,2.376c-0.75,-0.558 -1.475,-0.76 -1.838,-0.446c-0.176,0.155 -0.24,0.412 -0.211,0.728c-0.378,-0.757 -1.03,-1.198 -1.469,-0.987c-0.447,0.215 -0.505,1.022 -0.13,1.805c0.376,0.781 1.043,1.24 1.49,1.025c0.282,-0.135 0.409,-0.508 0.369,-0.961c0.192,0.414 0.479,0.857 0.848,1.282c1.005,1.154 2.232,1.73 2.741,1.287c0.4,-0.348 0.235,-1.224 -0.342,-2.143c2.207,2.737 3.578,6.186 3.707,9.971c0.067,1.966 -0.12,3.826 -0.653,5.588c0.718,-1.928 1.062,-3.957 1.021,-6.044Zm-7.888,-4.032c0.008,0.023 0,0 -0.001,-0.002c-0.004,-0.007 -0.007,-0.013 -0.013,-0.019c-0.011,-0.012 -0.022,-0.036 -0.035,-0.053c-0.022,-0.037 -0.029,-0.088 -0.043,-0.134c-0.022,-0.097 -0.047,-0.199 -0.064,-0.304c-0.035,-0.209 -0.022,-0.423 -0.034,-0.642c-0.01,-0.219 -0.019,-0.442 -0.069,-0.678c-0.015,-0.058 -0.025,-0.118 -0.048,-0.179l-0.031,-0.091c-0.016,-0.036 -0.034,-0.075 -0.054,-0.106c-0.08,-0.133 -0.177,-0.225 -0.273,-0.308c-0.194,-0.162 -0.393,-0.275 -0.593,-0.375c-0.198,-0.102 -0.4,-0.183 -0.587,-0.259l-0.132,-0.057c-0.04,-0.016 -0.079,-0.037 -0.093,-0.044c-0.001,-0.002 0.002,0.003 -0.004,-0.003l-0.019,-0.015c-0.013,-0.008 -0.029,-0.024 -0.043,-0.037l-0.099,-0.096c-0.275,-0.286 -0.619,-0.629 -1.069,-0.769c0.18,0.432 0.327,0.787 0.571,1.169c0.032,0.048 0.066,0.097 0.107,0.146c0.023,0.025 0.042,0.049 0.069,0.076l0.039,0.039c0.012,0.013 0.039,0.032 0.058,0.047c0.074,0.053 0.129,0.081 0.184,0.109c0.055,0.028 0.108,0.052 0.159,0.074c0.204,0.089 0.396,0.161 0.586,0.232c0.185,0.074 0.369,0.147 0.518,0.236c0.074,0.043 0.139,0.092 0.178,0.135c0.012,0.012 0.017,0.02 0.026,0.031l0.03,0.056c0.022,0.035 0.037,0.08 0.055,0.121c0.066,0.173 0.105,0.374 0.127,0.577c0.021,0.204 0.045,0.412 0.025,0.627c-0.01,0.106 -0.024,0.217 -0.03,0.331l-0.007,0.182c-0.002,0.034 -0.008,0.063 -0.005,0.103c0.001,0.019 0.004,0.038 0.007,0.058c0.007,0.022 0.003,0.026 0.023,0.073c0.032,0.071 0.062,0.109 0.088,0.143c0.027,0.033 0.052,0.06 0.076,0.085c0.048,0.048 0.095,0.089 0.14,0.127c0.091,0.076 0.181,0.142 0.271,0.208c0.358,0.256 0.718,0.483 1.077,0.712l1.072,0.667c0.176,0.111 0.35,0.224 0.507,0.339c0.039,0.029 0.076,0.058 0.11,0.086l0.101,0.088c0.068,0.064 0.133,0.125 0.19,0.189c0.119,0.126 0.21,0.259 0.242,0.416c0.035,0.155 -0.004,0.334 -0.091,0.498c-0.083,0.165 -0.209,0.327 -0.341,0.466c-0.069,0.066 -0.14,0.127 -0.218,0.186c-0.078,0.062 -0.167,0.113 -0.277,0.231c-0.055,0.054 -0.107,0.138 -0.142,0.223c-0.031,0.085 -0.047,0.167 -0.053,0.24c-0.011,0.152 0.002,0.261 0.016,0.391c0.024,0.144 0.077,0.288 0.152,0.413c0.075,0.125 0.173,0.227 0.268,0.313c0.095,0.087 0.195,0.154 0.287,0.208c0.092,0.053 0.183,0.092 0.235,0.119c0.027,0.011 0.052,0.24 0.019,0.337c-0.032,0.096 -0.074,0.192 -0.125,0.285c-0.052,0.092 -0.118,0.176 -0.194,0.265c-0.038,0.046 -0.076,0.091 -0.113,0.162c-0.01,0.02 -0.019,0.041 -0.027,0.07c-0.004,0.012 -0.007,0.036 -0.009,0.054c-0.001,0.021 0,0.053 0.006,0.084c0.008,0.036 0.025,0.074 0.036,0.09c0.005,0.012 0.012,0.023 0.019,0.034l0.016,0.021c0.011,0.016 0.022,0.026 0.03,0.035l0.026,0.028c0.064,0.062 0.11,0.094 0.158,0.128c0.046,0.032 0.091,0.056 0.133,0.082l0.223,0.121c0.029,0.016 0.081,0.112 0.071,0.159l-0.032,0.151l-0.074,0.307c-0.053,0.205 -0.11,0.412 -0.168,0.621c-0.015,0.053 -0.026,0.104 -0.045,0.162c-0.017,0.056 -0.04,0.113 -0.058,0.176c-0.019,0.062 -0.028,0.133 -0.021,0.202c0.006,0.07 0.035,0.138 0.069,0.196c0.069,0.118 0.152,0.206 0.232,0.279c0.079,0.075 0.153,0.141 0.221,0.212c0.136,0.141 0.237,0.317 0.309,0.524c0.037,-0.215 -0.003,-0.454 -0.114,-0.659c-0.105,-0.206 -0.266,-0.373 -0.315,-0.518l-0.032,-0.104c-0.011,-0.035 -0.03,-0.071 -0.04,-0.115c-0.012,-0.042 -0.018,-0.09 -0.011,-0.137c0.007,-0.045 0.026,-0.095 0.043,-0.144c0.068,-0.196 0.159,-0.386 0.252,-0.578c0.047,-0.096 0.094,-0.193 0.139,-0.292l0.066,-0.151l0.031,-0.077l0.008,-0.02l0.01,-0.032c0.007,-0.023 0.012,-0.046 0.015,-0.072c0.014,-0.099 -0.006,-0.209 -0.045,-0.292c-0.038,-0.085 -0.088,-0.151 -0.136,-0.207c-0.098,-0.109 -0.201,-0.18 -0.3,-0.237c-0.051,-0.027 -0.099,-0.053 -0.145,-0.072c-0.033,-0.014 -0.069,-0.029 -0.093,-0.035c0.017,-0.101 0.051,-0.202 0.097,-0.296c0.048,-0.095 0.104,-0.188 0.161,-0.282c0.057,-0.096 0.122,-0.189 0.176,-0.307c0.007,-0.015 0.014,-0.029 0.02,-0.045c0.006,-0.016 0.013,-0.03 0.02,-0.06c0.013,-0.048 0.015,-0.106 0.008,-0.162c-0.015,-0.113 -0.065,-0.2 -0.109,-0.265c-0.093,-0.129 -0.178,-0.209 -0.258,-0.281l-0.214,-0.182c-0.062,-0.056 -0.11,-0.112 -0.145,-0.167c-0.039,-0.054 -0.064,-0.11 -0.08,-0.175c-0.02,-0.079 -0.041,-0.18 -0.044,-0.241c-0.003,-0.032 -0.002,-0.055 -0.003,-0.073c0.005,-0.013 0,-0.025 0.017,-0.048c0.025,-0.047 0.107,-0.124 0.185,-0.205c0.08,-0.083 0.157,-0.174 0.228,-0.266c0.071,-0.094 0.137,-0.185 0.197,-0.282c0.062,-0.096 0.121,-0.195 0.172,-0.304c0.101,-0.213 0.184,-0.457 0.186,-0.725c0.004,-0.271 -0.09,-0.537 -0.221,-0.751c-0.068,-0.107 -0.144,-0.205 -0.228,-0.29c-0.04,-0.043 -0.083,-0.087 -0.131,-0.129c-0.047,-0.039 -0.093,-0.077 -0.138,-0.113c-0.181,-0.139 -0.36,-0.262 -0.541,-0.382c-0.359,-0.237 -0.725,-0.455 -1.087,-0.673c-0.362,-0.217 -0.726,-0.432 -1.062,-0.66c-0.084,-0.056 -0.166,-0.115 -0.239,-0.172c-0.037,-0.029 -0.071,-0.058 -0.098,-0.083c-0.014,-0.013 -0.025,-0.026 -0.032,-0.033c-0.008,-0.007 -0.008,-0.013 0.002,0.01Zm-1.843,4.062c-0.113,-0.128 -0.247,-0.239 -0.394,-0.327c-0.149,-0.087 -0.313,-0.152 -0.486,-0.184c-0.172,-0.03 -0.355,-0.029 -0.523,0.04l0.812,0.478c0.13,0.077 0.262,0.153 0.4,0.228c0.139,0.075 0.28,0.149 0.448,0.216c-0.049,-0.175 -0.145,-0.321 -0.257,-0.451Zm2.079,0.256c0.017,0.291 0.027,0.559 -0.016,0.814c-0.037,0.256 -0.124,0.5 -0.206,0.769c-0.083,0.266 -0.152,0.56 -0.149,0.857c0.002,0.298 0.066,0.59 0.197,0.848c0.029,-0.289 0.05,-0.559 0.106,-0.819c0.052,-0.26 0.135,-0.508 0.217,-0.774c0.08,-0.264 0.157,-0.562 0.138,-0.867c-0.017,-0.304 -0.118,-0.593 -0.287,-0.828Zm-1.36,-3.322c-0.053,-0.071 -0.123,-0.131 -0.202,-0.173c-0.08,-0.04 -0.171,-0.065 -0.266,-0.05c0.049,0.083 0.094,0.145 0.136,0.207c0.042,0.06 0.084,0.117 0.127,0.172c0.043,0.056 0.087,0.112 0.135,0.169c0.05,0.057 0.1,0.116 0.168,0.183c0.038,-0.09 0.034,-0.183 0.015,-0.269c-0.02,-0.087 -0.06,-0.168 -0.113,-0.239Zm0.119,1.894c0.169,-0.105 0.234,-0.325 0.194,-0.516c-0.02,-0.097 -0.063,-0.186 -0.127,-0.261c-0.064,-0.071 -0.153,-0.133 -0.255,-0.135c0.039,0.09 0.06,0.162 0.08,0.236c0.019,0.073 0.035,0.142 0.049,0.211c0.013,0.068 0.025,0.137 0.034,0.212l0.025,0.253Zm-0.902,-2.743c0.069,-0.082 0.13,-0.16 0.193,-0.216c0.016,-0.014 0.03,-0.029 0.046,-0.04l0.012,-0.01c0.003,-0.002 0.007,-0.006 0.018,-0.017c0.018,-0.016 0.035,-0.035 0.052,-0.053c0.032,-0.038 0.049,-0.081 0.068,-0.122c0.01,-0.039 0.024,-0.083 0.026,-0.119c0.014,-0.15 -0.015,-0.273 -0.053,-0.386c-0.04,-0.113 -0.092,-0.215 -0.153,-0.312c-0.123,-0.188 -0.279,-0.357 -0.477,-0.47c0.074,0.214 0.143,0.408 0.203,0.6c0.028,0.097 0.055,0.191 0.074,0.282c0.019,0.09 0.029,0.18 0.022,0.241c-0.001,0.016 -0.006,0.024 -0.006,0.037c-0.005,0.005 -0.005,0.014 -0.008,0.016c-0.001,0.001 -0.002,0.002 -0.001,0.005c0.002,0 -0.003,0.005 -0.011,0.012l-0.017,0.016c-0.025,0.024 -0.046,0.047 -0.067,0.073c-0.081,0.099 -0.132,0.202 -0.178,0.299c-0.087,0.192 -0.158,0.364 -0.298,0.545c0.227,-0.04 0.419,-0.216 0.555,-0.381Zm1.567,-8.287c0.159,0.215 0.386,0.316 0.509,0.225c0.123,-0.09 0.094,-0.338 -0.065,-0.552c-0.158,-0.215 -0.385,-0.315 -0.508,-0.224c-0.123,0.089 -0.094,0.337 0.064,0.551Zm7.267,19.987c0.044,-0.028 0.155,-0.195 0.177,-0.425l-0.099,0.035c-0.148,0.053 -3.659,1.284 -7.479,0.873l-0.076,-0.008l-0.066,-0.036c-0.12,-0.064 -2.744,-1.486 -4.635,-3.16c-0.058,0.184 -0.126,0.363 -0.202,0.54c1.667,1.557 4.207,2.99 4.662,3.241c3.801,0.285 6.641,-0.53 7.718,-1.06Zm-22.011,-2.319c1.172,2.44 4.109,3.47 6.548,2.298c2.439,-1.171 3.47,-4.108 2.298,-6.547c-1.171,-2.439 -4.109,-3.469 -6.547,-2.298c-2.439,1.171 -3.47,4.109 -2.299,6.547Zm12.782,-20.569c-0.081,0.185 -0.266,0.572 -0.521,1.106c0.182,0.044 0.424,0.125 0.731,0.275c-0.175,0.353 -0.36,0.728 -0.551,1.123c-0.165,-0.081 -0.411,-0.19 -0.709,-0.296c-0.107,0.222 -0.22,0.457 -0.337,0.703c0.302,0.103 0.552,0.214 0.709,0.29c-0.083,0.174 -0.168,0.351 -0.253,0.53c-0.15,-0.076 -0.396,-0.19 -0.704,-0.301c-0.072,0.153 -0.147,0.309 -0.222,0.469c0.312,0.111 0.562,0.227 0.705,0.298c-1.461,3.094 -3.117,6.807 -4.169,9.45c0.138,0.087 0.272,0.18 0.403,0.279c1.086,-3.237 5.866,-12.94 6.294,-13.806c-0.109,-0.089 -0.254,-0.178 -0.435,-0.25c-0.077,-0.03 -0.758,-0.285 -0.941,0.13Zm-26.62,20.446l0.89,0.158l0.627,0.11l2.141,0.379l-2.118,-0.69l0.376,-5.16l-0.952,4.973l-0.492,-0.16l0.814,-6.834l1.101,0.211l-0.967,-0.554l1.187,-1.585l-1.45,1.435l-0.217,0.214l-0.026,0.208l-0.914,7.295Zm2.171,1.908c0.679,0.13 1.118,0.146 1.427,0.078c-1.678,-0.231 -2.133,-0.652 -2.256,-0.962l-0.767,-0.136c0.02,0.346 0.272,0.765 1.596,1.02Zm-0.391,5.058c0.13,-0.097 0.265,-0.189 0.408,-0.273c0.206,-0.121 0.423,-0.229 0.654,-0.313c-0.246,-0.008 -0.497,0.013 -0.746,0.05c-0.158,0.025 -0.314,0.057 -0.471,0.096c0.047,0.15 0.099,0.296 0.155,0.44Zm1.312,5.549c-0.017,0.038 -0.034,0.077 -0.051,0.116c0.193,-0.042 0.402,-0.066 0.608,-0.073c0.265,-0.008 0.534,0.009 0.798,0.083c-0.225,-0.158 -0.488,-0.272 -0.759,-0.358c-0.147,-0.045 -0.295,-0.083 -0.448,-0.113c-0.048,0.115 -0.097,0.23 -0.148,0.345Zm-1.315,-9.518c0.246,-0.024 0.491,-0.065 0.718,-0.145c-0.24,-0.012 -0.47,-0.065 -0.692,-0.131c-0.108,-0.033 -0.213,-0.07 -0.312,-0.112c-0.028,0.135 -0.053,0.27 -0.075,0.404c0.123,0.001 0.242,-0.005 0.361,-0.016Zm-0.467,1.557c0.39,-0.093 0.766,-0.22 1.111,-0.396c-0.378,0.031 -0.75,0.005 -1.112,-0.051c-0.004,0.146 -0.004,0.295 0.001,0.447Zm0.071,0.822c0.146,-0.049 0.285,-0.101 0.426,-0.151c0.222,-0.082 0.444,-0.16 0.673,-0.224c-0.236,-0.029 -0.477,-0.041 -0.716,-0.05c-0.145,-0.007 -0.291,-0.012 -0.432,-0.022c0.012,0.146 0.028,0.294 0.049,0.447Zm1.326,2.442c-0.152,0.049 -0.302,0.104 -0.451,0.168c0.068,0.13 0.139,0.261 0.213,0.397c0.115,-0.111 0.238,-0.219 0.367,-0.319c0.2,-0.156 0.414,-0.301 0.646,-0.42c-0.259,0.031 -0.519,0.093 -0.775,0.174Zm0.808,3.318c0.189,-0.088 0.399,-0.159 0.611,-0.212c0.257,-0.062 0.524,-0.1 0.798,-0.083c-0.253,-0.108 -0.533,-0.166 -0.816,-0.194c-0.202,-0.019 -0.403,-0.025 -0.612,-0.012c0.025,0.175 0.03,0.341 0.019,0.501Zm1.277,0.731c-0.226,-0.159 -0.488,-0.272 -0.759,-0.358c-0.179,-0.056 -0.359,-0.099 -0.548,-0.13c-0.029,0.166 -0.073,0.327 -0.128,0.485c0.201,-0.046 0.42,-0.073 0.637,-0.08c0.264,-0.008 0.533,0.008 0.798,0.083Zm-0.034,1.422c0.111,0.022 0.217,-0.042 0.236,-0.142c0.02,-0.101 -0.054,-0.199 -0.164,-0.221c-0.111,-0.021 -0.217,0.042 -0.236,0.143c-0.02,0.099 0.053,0.199 0.164,0.22Zm-0.017,0.569c0.088,0.007 0.164,-0.053 0.17,-0.133c0.006,-0.079 -0.06,-0.149 -0.148,-0.156c-0.088,-0.007 -0.164,0.052 -0.17,0.133c-0.006,0.079 0.06,0.149 0.148,0.156Zm0.09,0.436c0.081,-0.016 0.133,-0.088 0.119,-0.16c-0.015,-0.073 -0.091,-0.118 -0.171,-0.102c-0.08,0.015 -0.133,0.087 -0.118,0.16c0.014,0.072 0.09,0.118 0.17,0.102Zm-0.056,0.329c0.022,0.071 0.103,0.109 0.18,0.085c0.079,-0.024 0.124,-0.1 0.102,-0.172c-0.021,-0.07 -0.102,-0.108 -0.18,-0.084c-0.078,0.024 -0.123,0.101 -0.102,0.171Zm-0.069,0.277c-0.406,0.028 -0.797,0.246 -1.1,0.545c-0.14,0.139 -0.264,0.3 -0.364,0.482c0.107,0.135 0.22,0.258 0.334,0.368c0.024,-0.223 0.113,-0.465 0.246,-0.675c0.199,-0.316 0.497,-0.6 0.884,-0.72Zm0.331,-2.74c-0.12,-0.023 -0.235,0.046 -0.256,0.156c-0.022,0.109 0.058,0.217 0.178,0.24c0.121,0.023 0.236,-0.046 0.257,-0.155c0.022,-0.109 -0.059,-0.217 -0.179,-0.241Zm-1.896,-8.876c0.095,-0.01 0.165,-0.088 0.156,-0.175c-0.009,-0.086 -0.094,-0.149 -0.189,-0.139c-0.096,0.01 -0.166,0.089 -0.156,0.175c0.008,0.086 0.093,0.148 0.189,0.139Zm-0.083,0.672c0.114,-0.001 0.206,-0.086 0.205,-0.189c-0.001,-0.104 -0.094,-0.188 -0.208,-0.187c-0.115,0.001 -0.206,0.086 -0.206,0.19c0.001,0.103 0.094,0.186 0.209,0.186Zm0.035,0.631c0.12,-0.015 0.207,-0.116 0.193,-0.225c-0.014,-0.11 -0.123,-0.186 -0.243,-0.17c-0.12,0.015 -0.207,0.116 -0.192,0.225c0.013,0.109 0.122,0.185 0.242,0.17Zm0.081,0.672c0.106,-0.014 0.182,-0.101 0.17,-0.197c-0.013,-0.097 -0.108,-0.163 -0.214,-0.15c-0.105,0.013 -0.181,0.102 -0.169,0.198c0.013,0.095 0.108,0.162 0.213,0.149Zm0.186,0.673c0.101,-0.031 0.16,-0.131 0.132,-0.223c-0.028,-0.091 -0.133,-0.141 -0.234,-0.109c-0.101,0.031 -0.16,0.131 -0.132,0.223c0.028,0.091 0.133,0.14 0.234,0.109Zm0.18,0.686c0.092,-0.028 0.145,-0.119 0.12,-0.202c-0.026,-0.083 -0.121,-0.127 -0.213,-0.098c-0.092,0.028 -0.145,0.118 -0.119,0.201c0.025,0.083 0.121,0.128 0.212,0.099Zm0.209,0.678c0.092,-0.028 0.145,-0.118 0.12,-0.201c-0.026,-0.083 -0.121,-0.127 -0.212,-0.099c-0.092,0.029 -0.145,0.119 -0.119,0.202c0.025,0.083 0.12,0.127 0.211,0.098Zm0.285,0.724c0.092,-0.028 0.145,-0.119 0.119,-0.202c-0.025,-0.083 -0.12,-0.127 -0.212,-0.099c-0.091,0.028 -0.145,0.118 -0.119,0.201c0.026,0.083 0.121,0.128 0.212,0.1Zm0.363,0.751c0.098,-0.03 0.155,-0.126 0.127,-0.215c-0.027,-0.089 -0.129,-0.136 -0.227,-0.106c-0.097,0.03 -0.155,0.127 -0.127,0.215c0.027,0.089 0.129,0.136 0.227,0.106Zm0.308,0.466c-0.106,0.033 -0.167,0.136 -0.138,0.232c0.03,0.096 0.139,0.147 0.244,0.114c0.106,-0.033 0.167,-0.136 0.138,-0.232c-0.03,-0.096 -0.139,-0.147 -0.244,-0.114Zm0.544,1.295c0.128,-0.04 0.203,-0.166 0.167,-0.283c-0.036,-0.117 -0.169,-0.178 -0.298,-0.139c-0.128,0.04 -0.203,0.167 -0.167,0.283c0.036,0.116 0.17,0.179 0.298,0.139Zm-0.197,0.808c-0.024,0.121 0.065,0.24 0.198,0.266c0.133,0.026 0.261,-0.05 0.284,-0.171c0.024,-0.121 -0.065,-0.24 -0.198,-0.267c-0.133,-0.025 -0.26,0.051 -0.284,0.172Zm-1.176,-1.44c-0.192,0.002 -0.383,0.015 -0.579,0.047c0.066,0.155 0.116,0.303 0.151,0.446c0.149,-0.084 0.311,-0.158 0.476,-0.22c0.239,-0.088 0.49,-0.156 0.754,-0.169c-0.254,-0.079 -0.528,-0.105 -0.802,-0.104Zm-0.403,-0.69c-0.164,0.028 -0.327,0.064 -0.489,0.114c0.058,0.108 0.117,0.217 0.178,0.334c0.012,0.023 0.022,0.044 0.033,0.068c0.116,-0.091 0.241,-0.177 0.37,-0.254c0.206,-0.12 0.426,-0.225 0.669,-0.28c-0.247,-0.038 -0.507,-0.022 -0.761,0.018Zm-0.623,-0.133c0.107,-0.101 0.224,-0.199 0.345,-0.287c0.195,-0.138 0.404,-0.262 0.641,-0.339c-0.249,-0.016 -0.506,0.025 -0.756,0.087c-0.151,0.039 -0.299,0.087 -0.446,0.145c0.007,0.012 0.013,0.023 0.02,0.036c0.064,0.116 0.13,0.235 0.196,0.358Zm0.119,6.453c0.077,-0.204 0.216,-0.409 0.386,-0.576c0.267,-0.262 0.622,-0.469 1.026,-0.498c-0.402,-0.065 -0.831,0.057 -1.195,0.278c-0.155,0.095 -0.3,0.212 -0.431,0.348c0.059,0.158 0.132,0.306 0.214,0.448Zm-0.335,-0.89c0.179,-0.164 0.407,-0.308 0.65,-0.41c0.292,-0.122 0.615,-0.194 0.95,-0.18c-0.318,-0.104 -0.671,-0.131 -1.019,-0.089c-0.207,0.028 -0.411,0.073 -0.613,0.146c-0.01,0.183 0.002,0.362 0.032,0.533Zm0.054,-1.039c0.183,-0.12 0.423,-0.21 0.667,-0.253c0.269,-0.047 0.556,-0.044 0.838,0.03c-0.244,-0.158 -0.534,-0.262 -0.84,-0.307c-0.159,-0.022 -0.32,-0.032 -0.486,-0.022c-0.067,0.174 -0.128,0.356 -0.179,0.552Zm-0.6,-5.944c0.117,-0.075 0.24,-0.145 0.364,-0.209c0.227,-0.117 0.463,-0.218 0.714,-0.292c-0.261,-0.018 -0.528,-0.006 -0.794,0.026c-0.157,0.02 -0.313,0.045 -0.47,0.079c0.058,0.132 0.12,0.263 0.186,0.396Zm-0.65,-1.909c0.027,0.156 0.059,0.304 0.095,0.448c0.348,-0.206 0.694,-0.407 1.056,-0.589c-0.384,0.029 -0.77,0.08 -1.153,0.134c0.001,0.002 0.001,0.005 0.002,0.007Zm-0.112,-1.975c0.012,0 0.024,0 0.036,-0.001c0.129,-0.008 0.253,-0.023 0.375,-0.043c0.244,-0.042 0.485,-0.1 0.706,-0.197c-0.239,0.005 -0.473,-0.031 -0.699,-0.08c-0.114,-0.027 -0.225,-0.057 -0.33,-0.093c-0.015,-0.005 -0.03,-0.011 -0.045,-0.017c-0.018,0.143 -0.033,0.286 -0.043,0.431Zm7.164,9.571c0.069,-0.091 0.181,-0.138 0.296,-0.124c0.029,0.004 0.654,0.07 0.988,-0.562c-1.428,-0.34 -1.478,-0.799 -1.498,-0.988l-0.019,-0.177c-0.015,-0.137 -0.035,-0.324 -0.055,-0.519l-0.02,-0.189l0.174,-0.075c0.076,-0.032 0.127,-0.075 0.161,-0.125c-0.361,-0.234 -0.384,-0.458 -0.396,-0.576c-0.007,-0.062 -0.016,-0.129 -0.024,-0.199c-0.021,-0.166 -0.043,-0.352 -0.052,-0.552c-1.442,-0.357 -1.712,-0.844 -1.752,-1.23c-0.087,-0.842 -0.085,-1.461 -0.084,-2.118c0.002,-0.392 0.003,-0.797 -0.014,-1.28c-0.626,-0.756 -1.185,-1.569 -1.669,-2.429c-0.096,0.092 -0.2,0.173 -0.316,0.24c-0.177,1.244 -0.134,1.969 0.179,3.328c0.264,1.145 0.695,1.943 1.294,3.047c0.144,0.265 0.296,0.548 0.458,0.854c0.658,1.254 0.302,2.078 -0.074,2.951c-0.043,0.099 -0.087,0.201 -0.13,0.304c-0.013,0.033 -0.3,0.745 -0.045,1.408c0.605,-0.314 1.173,-0.268 1.743,0.127l0.855,-1.116Zm0.722,3.441c0.086,-0.084 0.174,-0.176 0.259,-0.286c0.021,-0.029 0.043,-0.055 0.064,-0.087c0.021,-0.033 0.04,-0.066 0.06,-0.1c0.018,-0.039 0.036,-0.08 0.053,-0.121c0.013,-0.045 0.023,-0.092 0.034,-0.139c0.027,-0.186 -0.008,-0.351 -0.046,-0.49c-0.043,-0.139 -0.095,-0.255 -0.141,-0.366c-0.098,-0.214 -0.169,-0.407 -0.155,-0.507c-0.002,-0.028 0.011,-0.05 0.015,-0.077c0.021,-0.025 0.025,-0.055 0.056,-0.087c0.052,-0.064 0.136,-0.137 0.224,-0.21c0.178,-0.148 0.381,-0.306 0.551,-0.503c0.085,-0.1 0.161,-0.211 0.216,-0.33c0.054,-0.121 0.083,-0.251 0.082,-0.375c-0.069,0.105 -0.142,0.195 -0.227,0.271c-0.088,0.074 -0.178,0.138 -0.276,0.194c-0.195,0.114 -0.405,0.205 -0.627,0.322c-0.111,0.06 -0.226,0.125 -0.344,0.229c-0.06,0.049 -0.117,0.124 -0.168,0.196c-0.044,0.082 -0.086,0.167 -0.103,0.259c-0.039,0.185 -0.013,0.36 0.025,0.5c0.04,0.141 0.091,0.264 0.139,0.375c0.099,0.218 0.177,0.416 0.171,0.521c-0.002,0.012 -0.002,0.024 -0.002,0.038c-0.005,0.015 -0.009,0.029 -0.013,0.046c-0.009,0.019 -0.018,0.038 -0.026,0.058c-0.009,0.02 -0.022,0.043 -0.034,0.064c-0.05,0.089 -0.112,0.184 -0.18,0.283c-0.132,0.198 -0.272,0.415 -0.372,0.654c-0.098,0.238 -0.152,0.511 -0.096,0.756c0.173,-0.471 0.519,-0.744 0.861,-1.088Zm1.862,-1.649c0.083,-0.06 0.17,-0.104 0.264,-0.137c0.048,-0.014 0.097,-0.03 0.147,-0.04l0.188,-0.044c0.253,-0.065 0.507,-0.155 0.746,-0.286c0.236,-0.133 0.463,-0.306 0.612,-0.544l-0.757,0.164c-0.242,0.052 -0.485,0.102 -0.73,0.166l-0.187,0.052c-0.074,0.023 -0.148,0.05 -0.218,0.086c-0.141,0.072 -0.269,0.18 -0.361,0.308c-0.188,0.259 -0.22,0.576 -0.14,0.84c0.132,-0.246 0.268,-0.446 0.436,-0.565Zm-0.83,2.625c-0.186,0.048 -0.366,0.115 -0.539,0.198c-0.171,0.084 -0.336,0.185 -0.489,0.305c-0.151,0.12 -0.295,0.261 -0.394,0.44c0.197,-0.05 0.371,-0.111 0.546,-0.176c0.173,-0.067 0.342,-0.139 0.507,-0.22c0.165,-0.081 0.328,-0.169 0.487,-0.268c0.159,-0.098 0.313,-0.205 0.468,-0.337c-0.204,-0.02 -0.399,0.012 -0.586,0.058Zm0.997,-0.729c0.123,-0.051 0.244,-0.112 0.361,-0.194c0.117,-0.081 0.236,-0.187 0.324,-0.33c0.022,-0.034 0.042,-0.071 0.058,-0.108l0.03,-0.072c0.012,-0.025 0.039,-0.068 0.074,-0.11c0.07,-0.088 0.161,-0.189 0.238,-0.309c0.078,-0.12 0.142,-0.264 0.158,-0.413c0.017,-0.148 -0.015,-0.294 -0.082,-0.411c-0.033,0.133 -0.077,0.246 -0.141,0.338c-0.062,0.092 -0.14,0.163 -0.226,0.236c-0.087,0.071 -0.184,0.139 -0.289,0.233c-0.052,0.049 -0.11,0.101 -0.162,0.185c-0.013,0.02 -0.025,0.043 -0.037,0.067l-0.017,0.031c-0.012,0.019 -0.022,0.038 -0.035,0.056c-0.094,0.14 -0.28,0.282 -0.467,0.437c-0.19,0.156 -0.388,0.319 -0.566,0.532c0.278,-0.007 0.531,-0.07 0.779,-0.168Zm-6.477,1.181c-0.207,-0.368 -0.302,-1.201 1.293,-3.237c-0.284,0.177 -0.617,0.481 -1.018,0.969c-1.264,1.536 -1.066,2.122 -0.539,2.612l0.264,-0.344Zm0.723,8.269l-1.693,-6.802c-0.024,-0.096 -0.003,-0.196 0.057,-0.274l0.257,-0.336c-0.615,-0.569 -0.8,-1.183 -0.546,-1.94c-0.401,-0.301 -0.86,-0.762 -1.186,-1.343c-0.005,-0.008 -0.011,-0.018 -0.016,-0.027c-0.337,-0.614 -0.522,-1.359 -0.331,-2.188c0.119,-0.515 0.306,-0.941 0.472,-1.317c0.343,-0.78 0.591,-1.344 0.089,-2.298c-0.176,-0.334 -0.342,-0.635 -0.502,-0.926c-0.599,-1.087 -1.071,-1.947 -1.286,-3.171c-0.251,-1.43 -0.147,-2.481 0.115,-3.659c-0.557,-0.264 -0.996,-0.692 -0.982,-1.426l-0.432,-0.076c-0.203,-0.037 -0.343,-0.225 -0.317,-0.43l1.002,-8.002c0.011,-0.087 0.05,-0.167 0.112,-0.228l2.796,-2.763c1.297,-4.312 4.329,-8.084 8.697,-10.183c4.536,-2.18 9.699,-2.196 14.239,-0.063c0.353,-0.493 1.048,-0.628 1.814,-0.326c0.652,0.257 1.214,0.788 1.164,1.359c5.195,3.012 8.456,8.502 8.575,14.549c0.044,2.227 -0.331,4.391 -1.113,6.446c0.235,0.25 0.355,0.594 0.33,0.98c-0.029,0.458 -0.255,0.883 -0.555,1.065c0.082,0.734 0.104,0.911 0.115,1.005c0.013,0.112 0.013,0.112 0.085,0.797c0.04,0.387 -0.124,0.92 -1.474,1.568c-0.171,0.082 -0.36,0.166 -0.57,0.252c0.011,0.112 0.02,0.22 0.027,0.32c0.006,0.083 0.012,0.163 0.02,0.237c0.012,0.121 0.036,0.351 -0.29,0.665c0.035,0.04 0.082,0.072 0.143,0.08l0.191,0.024l0.031,0.191c0.049,0.297 0.063,0.487 0.073,0.613c0.003,0.034 0.005,0.062 0.007,0.087c0.018,0.168 0.057,0.548 -0.862,1.068c4.506,0.948 5.154,3.932 5.154,3.932c-1.142,-1.433 -2.552,-1.686 -2.552,-1.686c1.052,0.998 0.507,2 0.507,2c0.63,0.915 0.652,1.955 0.652,1.955c-0.443,-0.575 -1.585,-1.411 -1.585,-1.411c-0.807,-1.88 -1.753,-1.761 -1.753,-1.761c1.179,0.962 1.349,2.361 1.349,2.361c1.305,0.878 1.938,2.293 1.938,2.293c-2.294,-1.693 -2.887,-1.287 -2.887,-1.287c-0.665,-0.588 -1.173,-0.703 -1.173,-0.703c1.613,1.469 1.708,2.165 1.708,2.165c-3.752,-3.188 -4.46,-2.824 -4.46,-2.824c6.657,5.111 6.78,7.057 6.78,7.057c-6.877,-4.575 -14.311,-3.797 -14.311,-3.797c-0.022,-0.01 -0.044,-0.019 -0.066,-0.029c-4.124,-1.098 -5.466,-1.096 -6.743,-0.965c-3.463,0.503 -6.039,1.631 -7.659,3.36c-1.745,1.863 -2.517,5.756 -2.525,5.795c-0.02,0.103 -0.087,0.187 -0.177,0.23c-0.04,0.019 -0.085,0.031 -0.131,0.032c-0.152,0.004 -0.286,-0.098 -0.322,-0.245Z" style="fill:#172b44;fill-rule:nonzero;"/><path d="M32.997,22.521c-0.007,0.061 -0.013,0.118 -0.017,0.166c-0.023,0.266 -0.064,0.71 -0.089,0.987c-0.056,0.593 -0.138,1.91 -0.14,2.236c-0.001,0.423 0.048,1.279 0.089,1.526c0.024,0.144 0.094,0.407 0.174,0.655l0.131,0.402l0.267,0.371c0.154,0.214 0.343,0.475 0.42,0.579c0.116,0.158 0.17,0.262 0.216,0.415c0,0.001 0.001,0.003 0.001,0.004c0.079,0.266 0.063,0.38 -0.03,0.713c-0.292,1.039 -0.308,1.309 -0.145,2.404c0.047,0.315 0.1,0.692 0.108,0.777c0.018,0.202 0.044,0.355 0.086,0.496c0.019,0.066 0.042,0.129 0.07,0.192c0.179,0.419 0.902,1.57 1.207,1.926c0.059,0.069 0.268,0.276 0.485,0.474c0.657,0.604 1.243,1.363 1.528,1.981c0.051,0.111 0.184,0.477 0.304,0.834c0.124,0.371 0.245,0.702 0.281,0.779c0.361,0.775 0.533,1.129 0.659,1.352c0.094,0.169 0.208,0.42 0.289,0.638c0.077,0.208 0.153,0.384 0.174,0.417c0.165,0.27 0.899,0.857 1.436,1.275c0.139,0.108 0.363,0.285 0.407,0.328c0.065,0.063 0.11,0.168 0.364,0.974c0.3,0.948 0.305,0.954 0.585,1.26c0.225,0.245 0.455,0.408 0.769,0.543c0.603,0.26 0.95,0.498 1.547,1.063c0.466,0.44 0.848,0.775 1.169,1.025c0.669,0.52 0.938,0.772 1.107,1.035c0.054,0.085 0.178,0.349 0.267,0.556c0.217,0.505 0.276,0.603 0.527,0.874c0.456,0.493 0.969,0.843 1.57,1.07c0.067,0.026 0.322,0.083 0.582,0.127c0.643,0.109 0.742,0.165 1.06,0.604c0.105,0.144 0.192,0.303 0.267,0.487c0.175,0.429 0.323,0.584 0.882,0.919c0.137,0.082 0.279,0.164 0.423,0.244l0,-32.708l-19.03,0Z" style="fill:#5ec5ea;fill-rule:nonzero;"/><path d="M42.013,31.061c-0.082,0.06 -0.155,0.282 -0.125,0.383c0.028,0.096 0.123,0.197 0.197,0.213c0.13,0.026 0.309,-0.095 0.348,-0.234c0.067,-0.246 -0.228,-0.5 -0.42,-0.362Z" style="fill:#172b44;fill-rule:nonzero;"/><path d="M44.229,34.731c-0.131,-0.065 -0.375,-0.102 -0.476,-0.072c-0.121,0.036 -0.189,0.172 -0.186,0.373c0.006,0.363 0.179,0.619 0.462,0.683c0.099,0.023 0.139,0.018 0.259,-0.032c0.222,-0.092 0.288,-0.158 0.296,-0.299c0.004,-0.066 0.006,-0.144 0.003,-0.173c-0.013,-0.159 -0.191,-0.397 -0.358,-0.48Z" style="fill:#172b44;fill-rule:nonzero;"/><path d="M38.646,30.199c-0.086,0.026 -0.113,0.049 -0.151,0.129c-0.025,0.053 -0.041,0.14 -0.036,0.192c0.012,0.117 0.103,0.27 0.187,0.316c0.118,0.064 0.307,-0.04 0.34,-0.186c0.008,-0.039 -0.005,-0.139 -0.03,-0.224c-0.06,-0.205 -0.153,-0.273 -0.31,-0.227Z" style="fill:#172b44;fill-rule:nonzero;"/><path d="M41.066,22.521l-0.601,0c-0.057,0.196 0.005,0.374 0.173,0.471c0.14,0.081 0.265,0.052 0.387,-0.09c0.075,-0.089 0.08,-0.11 0.062,-0.256c-0.005,-0.046 -0.012,-0.087 -0.021,-0.125Z" style="fill:#172b44;fill-rule:nonzero;"/><path d="M36.439,22.521c0.03,0.043 0.05,0.098 0.083,0.208c0.051,0.166 0.075,0.213 0.135,0.258c0.177,0.133 0.369,0.133 0.516,0.001c0.093,-0.083 0.134,-0.203 0.138,-0.399c0.001,-0.024 0.001,-0.047 0,-0.068l-0.872,0Z" style="fill:#172b44;fill-rule:nonzero;"/><path d="M44.517,42.196c0.304,-0.022 0.445,-0.056 0.551,-0.136c0.149,-0.112 0.271,-0.195 0.342,-0.234c0.102,-0.056 0.066,-0.066 -0.047,-0.015l-0.102,0.049l-0.016,-0.093c-0.013,-0.072 -0.031,-0.097 -0.089,-0.123c-0.041,-0.017 -0.179,-0.078 -0.307,-0.134c-0.129,-0.057 -0.369,-0.158 -0.532,-0.223c-0.32,-0.129 -0.402,-0.195 -0.588,-0.482c-0.084,-0.131 -0.228,-0.555 -0.29,-0.862c-0.02,-0.098 -0.025,-0.101 -0.121,-0.104c-0.133,-0.005 -0.249,0.069 -0.303,0.192c-0.022,0.052 -0.038,0.105 -0.034,0.118c0.004,0.013 -0.014,0.149 -0.04,0.301l-0.046,0.276l0.079,0.262c0.142,0.472 0.38,0.769 0.807,1.012c0.298,0.168 0.471,0.215 0.736,0.196Z" style="fill:#172b44;fill-rule:nonzero;"/><path d="M36.184,24.986c0.235,0.112 0.473,-0.115 0.691,-0.659c0.086,-0.214 0.111,-0.329 0.103,-0.47c-0.008,-0.14 -0.022,-0.189 -0.084,-0.288c-0.069,-0.109 -0.177,-0.147 -0.241,-0.085c-0.053,0.053 -0.063,0.151 -0.028,0.275c0.036,0.121 0.007,0.312 -0.057,0.388c-0.028,0.034 -0.09,0.083 -0.138,0.11c-0.131,0.073 -0.215,0.049 -0.309,-0.086c-0.063,-0.09 -0.091,-0.11 -0.142,-0.101c-0.133,0.021 -0.229,0.295 -0.194,0.558c0.016,0.128 0.11,0.249 0.221,0.285c0.045,0.015 0.125,0.048 0.178,0.073Z" style="fill:#172b44;fill-rule:nonzero;"/><path d="M47.703,34.183c0.062,-0.081 0.066,-0.066 0.009,0.033c-0.025,0.042 -0.048,0.066 -0.051,0.054c-0.003,-0.013 0.015,-0.052 0.042,-0.087Zm4.183,1.647c-0.018,-0.095 -0.084,-0.341 -0.146,-0.546l-0.113,-0.373l-0.194,-0.268c-0.25,-0.344 -0.551,-0.678 -0.688,-0.765c-0.133,-0.083 -0.449,-0.183 -0.703,-0.221c-0.152,-0.023 -0.193,-0.021 -0.216,0.013c-0.04,0.06 -0.019,0.105 0.084,0.179c0.225,0.165 0.55,0.704 0.678,1.126c0.059,0.195 0.067,0.263 0.057,0.521c-0.023,0.57 -0.182,1.155 -0.391,1.441c-0.156,0.213 -0.301,0.313 -0.562,0.39c-0.199,0.059 -0.25,0.063 -0.448,0.04c-0.182,-0.02 -0.268,-0.048 -0.453,-0.149c-0.259,-0.14 -0.502,-0.353 -0.645,-0.562c-0.141,-0.208 -0.323,-0.762 -0.38,-1.155c-0.061,-0.417 -0.079,-0.822 -0.046,-1.029c0.027,-0.175 0.123,-0.394 0.232,-0.531c0.055,-0.069 0.055,-0.073 -0.001,-0.095c-0.053,-0.021 -0.054,-0.02 -0.011,0.011c0.026,0.018 0.041,0.035 0.034,0.037c-0.007,0.002 -0.028,0.015 -0.046,0.029c-0.022,0.017 -0.036,0.01 -0.042,-0.021c-0.006,-0.028 -0.024,-0.04 -0.046,-0.03c-0.053,0.024 -0.313,0.205 -0.438,0.305c-0.06,0.048 -0.24,0.181 -0.4,0.295c-0.721,0.518 -1.156,1.101 -1.274,1.706c-0.103,0.528 -0.076,0.945 0.103,1.551c0.118,0.402 0.124,0.416 0.275,0.629c0.221,0.31 0.437,0.481 1.028,0.81c0.999,0.556 1.423,0.66 2.062,0.508c0.184,-0.044 0.296,-0.086 0.41,-0.151c0.221,-0.126 0.617,-0.44 1.015,-0.806c0.278,-0.255 0.392,-0.382 0.625,-0.7c0.314,-0.429 0.362,-0.524 0.508,-1.005c0.152,-0.499 0.193,-0.866 0.132,-1.184Z" style="fill:#172b44;fill-rule:nonzero;"/><path d="M37.122,30.597c-0.067,-0.133 -0.237,-0.319 -0.303,-0.333c-0.074,-0.015 -0.167,0.069 -0.182,0.164c-0.006,0.04 -0.004,0.141 0.006,0.225c0.014,0.133 0.029,0.171 0.107,0.279c0.05,0.069 0.095,0.139 0.1,0.156c0.005,0.017 0.051,0.088 0.104,0.157c0.067,0.09 0.146,0.153 0.275,0.22c0.333,0.174 0.459,0.176 0.55,0.009c0.043,-0.079 0.045,-0.115 0.015,-0.217c-0.068,-0.232 -0.202,-0.357 -0.411,-0.386c-0.112,-0.014 -0.152,-0.057 -0.261,-0.274Z" style="fill:#172b44;fill-rule:nonzero;"/><path d="M46.057,39.346c-0.048,-0.035 -0.158,-0.141 -0.245,-0.235c-0.177,-0.194 -0.45,-0.365 -0.654,-0.411c-0.164,-0.036 -0.479,-0.039 -0.888,-0.006c-0.357,0.029 -0.517,0.069 -0.593,0.149c-0.028,0.029 -0.076,0.061 -0.105,0.07c-0.118,0.037 -0.131,0.206 -0.02,0.265c0.048,0.027 0.088,0.018 0.307,-0.063c0.24,-0.089 0.259,-0.093 0.411,-0.068c0.088,0.013 0.215,0.03 0.282,0.038c0.139,0.016 0.306,0.132 0.392,0.273c0.083,0.134 0.201,0.252 0.332,0.332c0.062,0.039 0.169,0.119 0.238,0.179c0.069,0.059 0.139,0.112 0.156,0.116c0.017,0.005 0.079,0.058 0.137,0.117c0.1,0.104 0.111,0.126 0.196,0.424c0.076,0.263 0.09,0.346 0.081,0.495c-0.008,0.151 -0.002,0.19 0.038,0.236c0.057,0.066 0.172,0.069 0.214,0.005c0.067,-0.1 0.116,-0.76 0.078,-1.057c-0.01,-0.075 -0.019,-0.18 -0.019,-0.232c0,-0.211 -0.15,-0.488 -0.338,-0.627Z" style="fill:#172b44;fill-rule:nonzero;"/><path d="M35.382,23.496c-0.025,-0.171 -0.118,-0.411 -0.181,-0.467c-0.053,-0.045 -0.233,-0.058 -0.268,-0.018c-0.012,0.012 -0.039,0.029 -0.061,0.037c-0.108,0.04 -0.186,0.354 -0.209,0.84c-0.008,0.172 -0.021,0.419 -0.029,0.548c-0.021,0.364 0.063,0.574 0.242,0.602c0.247,0.04 0.485,-0.389 0.52,-0.936c0.014,-0.221 0.008,-0.456 -0.014,-0.606Z" style="fill:#172b44;fill-rule:nonzero;"/><path d="M40.893,35.98c0.135,-0.018 0.236,-0.085 0.25,-0.166c0.018,-0.101 -0.041,-0.157 -0.206,-0.192c-0.125,-0.027 -0.157,-0.046 -0.208,-0.128c-0.032,-0.053 -0.066,-0.131 -0.074,-0.174c-0.075,-0.404 -0.21,-0.643 -0.486,-0.858c-0.168,-0.131 -0.268,-0.155 -0.389,-0.093c-0.098,0.051 -0.174,0.223 -0.176,0.397c-0.004,0.399 0.225,0.781 0.598,0.997c0.113,0.065 0.279,0.14 0.369,0.165c0.09,0.026 0.177,0.067 0.192,0.093c0.015,0.025 0.053,0.062 0.084,0.083c0.053,0.037 0.048,0.02 -0.024,-0.071c-0.029,-0.036 -0.022,-0.042 0.07,-0.053Z" style="fill:#172b44;fill-rule:nonzero;"/><path d="M49.192,29.848c0.011,0.122 0.008,0.332 -0.006,0.466c-0.046,0.42 0.064,0.752 0.408,1.229c0.229,0.317 0.487,0.497 0.773,0.539c0.12,0.017 0.174,0.007 0.581,-0.114c0.556,-0.165 0.58,-0.184 0.769,-0.586c0.144,-0.31 0.184,-0.486 0.165,-0.736c-0.007,-0.094 -0.048,-0.293 -0.091,-0.441c-0.1,-0.346 -0.185,-0.443 -0.221,-0.253c-0.008,0.046 -0.056,0.175 -0.105,0.285c-0.071,0.163 -0.124,0.235 -0.274,0.378c-0.213,0.204 -0.388,0.312 -0.528,0.327c-0.132,0.014 -0.44,-0.057 -0.612,-0.141c-0.397,-0.195 -0.701,-0.594 -0.796,-1.044c-0.05,-0.237 -0.088,-0.183 -0.063,0.091Z" style="fill:#172b44;fill-rule:nonzero;"/><path d="M51.532,52.802c-0.177,-0.249 -0.264,-0.402 -0.418,-0.731c-0.366,-0.785 -0.537,-1.007 -1.149,-1.488c-0.365,-0.289 -0.778,-0.662 -0.795,-0.722c-0.004,-0.016 -0.018,-0.026 -0.029,-0.023c-0.011,0.004 -0.088,-0.06 -0.17,-0.139c-0.082,-0.08 -0.158,-0.144 -0.168,-0.14c-0.026,0.007 -0.034,-0.005 0.167,0.261c0.1,0.132 0.182,0.262 0.183,0.289c0.001,0.027 0.012,0.047 0.024,0.043c0.025,-0.007 0.102,0.117 0.177,0.287c0.029,0.066 0.135,0.279 0.236,0.472c0.225,0.434 0.361,0.773 0.315,0.787c-0.073,0.022 -0.583,-0.08 -0.762,-0.152c-0.346,-0.14 -0.861,-0.539 -1.024,-0.794c-0.04,-0.063 -0.138,-0.27 -0.218,-0.459c-0.326,-0.779 -0.602,-1.119 -1.462,-1.802c-0.716,-0.569 -1.496,-1.262 -1.472,-1.306c0.021,-0.039 1.019,0.09 1.282,0.166c0.368,0.105 0.925,0.349 1.136,0.496c0.158,0.112 0.162,0.08 0.005,-0.04c-0.137,-0.105 -0.984,-0.696 -1.294,-0.901c-0.595,-0.395 -1.229,-0.651 -1.739,-0.704c-0.413,-0.042 -1.201,-0.195 -1.308,-0.253c-0.055,-0.029 -0.147,-0.102 -0.205,-0.161l-0.105,-0.108l-0.248,-0.821c-0.277,-0.92 -0.31,-0.995 -0.574,-1.277c-0.08,-0.086 -0.268,-0.25 -0.417,-0.364c-0.419,-0.322 -1.158,-0.936 -1.229,-1.023c-0.035,-0.043 -0.113,-0.203 -0.173,-0.355c-0.06,-0.153 -0.191,-0.427 -0.29,-0.61c-0.1,-0.182 -0.299,-0.581 -0.443,-0.885c-0.217,-0.459 -0.291,-0.644 -0.437,-1.089c-0.102,-0.314 -0.165,-0.541 -0.152,-0.544c0.032,-0.009 0.214,0.131 0.416,0.319c0.553,0.514 1.358,1.486 1.439,1.738c0.046,0.142 0.097,0.155 0.068,0.019c-0.058,-0.278 -0.59,-1.548 -0.875,-2.09c-0.239,-0.452 -0.677,-0.999 -1.013,-1.263c-0.085,-0.067 -0.33,-0.228 -0.543,-0.358c-0.427,-0.26 -0.957,-0.676 -1.54,-1.211c-0.328,-0.298 -0.399,-0.379 -0.611,-0.684c-0.258,-0.373 -0.638,-1.001 -0.729,-1.204c-0.035,-0.08 -0.066,-0.213 -0.084,-0.368c-0.015,-0.134 -0.067,-0.5 -0.115,-0.814c-0.048,-0.314 -0.088,-0.656 -0.088,-0.76c-0.001,-0.196 0.101,-0.711 0.222,-1.123c0.038,-0.131 0.089,-0.347 0.113,-0.481c0.085,-0.479 0.21,-1.469 0.214,-1.691c0.006,-0.341 -0.087,-1.125 -0.309,-2.604c-0.01,-0.072 -0.023,-0.016 -0.039,0.186c-0.036,0.432 -0.102,0.879 -0.19,1.289c-0.08,0.378 -0.211,0.815 -0.251,0.84c-0.012,0.008 -0.151,-0.17 -0.307,-0.395c-0.279,-0.402 -0.285,-0.414 -0.358,-0.672c-0.064,-0.229 -0.077,-0.339 -0.098,-0.859c-0.013,-0.328 -0.015,-0.786 -0.003,-1.016c0.032,-0.634 0.082,-1.354 0.116,-1.667c0.017,-0.153 0.045,-0.479 0.062,-0.722c0.015,-0.192 0.036,-0.407 0.058,-0.6l-1.494,0c-0.006,0.056 -0.012,0.108 -0.016,0.152c-0.023,0.266 -0.063,0.71 -0.089,0.986c-0.056,0.594 -0.138,1.923 -0.14,2.25c-0.002,0.431 0.049,1.299 0.091,1.553c0.025,0.153 0.096,0.421 0.18,0.678l0.138,0.427l0.282,0.39c0.154,0.215 0.344,0.476 0.42,0.58c0.106,0.143 0.152,0.232 0.192,0.366c0.067,0.222 0.063,0.3 -0.029,0.629c-0.297,1.057 -0.315,1.357 -0.149,2.471c0.052,0.349 0.1,0.695 0.106,0.767c0.029,0.314 0.077,0.523 0.169,0.737c0.186,0.433 0.916,1.599 1.233,1.967c0.07,0.082 0.294,0.302 0.497,0.488c0.639,0.586 1.217,1.334 1.491,1.929c0.048,0.105 0.182,0.473 0.298,0.819c0.116,0.345 0.245,0.704 0.288,0.796c0.364,0.782 0.535,1.133 0.663,1.362c0.091,0.16 0.202,0.405 0.28,0.616c0.07,0.193 0.155,0.393 0.187,0.445c0.139,0.226 0.588,0.626 1.474,1.316c0.187,0.146 0.365,0.289 0.394,0.317c0.041,0.04 0.113,0.242 0.323,0.907c0.304,0.961 0.317,0.99 0.62,1.321c0.239,0.261 0.489,0.437 0.823,0.581c0.589,0.254 0.914,0.477 1.501,1.033c0.467,0.44 0.858,0.783 1.18,1.034c0.655,0.509 0.913,0.749 1.071,0.996c0.044,0.069 0.159,0.308 0.255,0.533c0.224,0.522 0.292,0.633 0.556,0.919c0.473,0.51 1.007,0.875 1.631,1.111c0.085,0.032 0.36,0.093 0.611,0.135c0.605,0.102 0.665,0.136 0.958,0.54c0.097,0.133 0.179,0.283 0.249,0.455c0.188,0.462 0.361,0.642 0.947,0.995c0.164,0.097 0.334,0.195 0.505,0.289l0,-1.774c-0.052,-0.068 -0.1,-0.165 -0.187,-0.345c-0.047,-0.098 -0.186,-0.319 -0.308,-0.49Z" style="fill:#172b44;fill-rule:nonzero;"/><path d="M47.93,22.521l-1.797,0c0.076,0.287 0.1,0.34 0.18,0.459c0.211,0.313 0.635,0.576 0.922,0.571c0.245,-0.003 0.368,-0.049 0.48,-0.178c0.053,-0.06 0.127,-0.119 0.165,-0.13c0.081,-0.025 0.154,-0.15 0.172,-0.295c0.013,-0.115 -0.018,-0.242 -0.088,-0.352c-0.01,-0.016 -0.022,-0.042 -0.034,-0.075Z" style="fill:#172b44;fill-rule:nonzero;"/><path d="M45.758,25.047c0.132,-0.138 0.149,-0.148 0.363,-0.211c0.123,-0.037 0.264,-0.069 0.313,-0.071l0.089,-0.003l-0.061,-0.063c-0.046,-0.047 -0.129,-0.074 -0.338,-0.109c-0.4,-0.064 -0.479,-0.065 -0.683,-0.005c-0.155,0.045 -0.202,0.071 -0.321,0.182c-0.083,0.077 -0.184,0.209 -0.249,0.327c-0.146,0.264 -0.154,0.4 -0.042,0.775c0.075,0.255 0.089,0.284 0.2,0.401c0.161,0.173 0.528,0.369 0.762,0.409c0.272,0.046 0.463,0.017 0.699,-0.109c0.205,-0.109 0.259,-0.153 0.433,-0.355l0.111,-0.128l-0.163,-0.001c-0.089,-0.001 -0.21,0.013 -0.269,0.03c-0.219,0.064 -0.55,-0.055 -0.757,-0.273c-0.121,-0.128 -0.233,-0.399 -0.229,-0.555c0.003,-0.079 0.029,-0.125 0.142,-0.241Z" style="fill:#172b44;fill-rule:nonzero;"/><path d="M44.285,31.067c0.06,0.202 0.194,0.337 0.512,0.52c0.258,0.149 0.498,0.215 0.688,0.189c0.076,-0.01 0.159,0.004 0.239,0.04c0.184,0.081 0.277,0.073 0.57,-0.05c0.277,-0.116 0.358,-0.184 0.407,-0.339c0.045,-0.141 -0.002,-0.278 -0.141,-0.41c-0.185,-0.176 -0.36,-0.239 -0.863,-0.312c-0.222,-0.032 -0.265,-0.048 -0.381,-0.143c-0.175,-0.144 -0.326,-0.173 -0.553,-0.106c-0.214,0.064 -0.386,0.19 -0.466,0.343c-0.054,0.106 -0.055,0.126 -0.012,0.268Z" style="fill:#172b44;fill-rule:nonzero;"/></g></g><path d="M50.619,6.794l-41.56,0c-0.356,0 -0.645,0.289 -0.645,0.645l0,53.646c0,0.244 0.137,0.466 0.355,0.577l20.78,10.449c0.091,0.046 0.191,0.069 0.29,0.069c0.099,0 0.199,-0.023 0.29,-0.069l20.78,-10.449c0.218,-0.111 0.356,-0.333 0.356,-0.577l0,-53.646c0,-0.356 -0.289,-0.645 -0.646,-0.645Zm-0.394,1.039l0,53.009l-20.386,10.252l-20.386,-10.252l0,-53.009l40.772,0Z" style="fill:#172b44;fill-rule:nonzero;"/><path d="M9.176,22.482c-0.707,0 -1.282,-0.576 -1.282,-1.283l0,-13.76c0,-0.642 0.522,-1.165 1.165,-1.165l41.56,0c0.643,0 1.165,0.523 1.165,1.165l0,13.76c0,0.707 -0.575,1.283 -1.282,1.283l-41.326,0Z" style="fill:#172b44;fill-rule:nonzero;"/><path d="M9.059,6.728c-0.392,0 -0.71,0.319 -0.71,0.711l0,13.76c0,0.456 0.371,0.828 0.827,0.828l41.326,0c0.456,0 0.828,-0.372 0.828,-0.828l0,-13.76c0,-0.392 -0.319,-0.711 -0.711,-0.711l-41.56,0Zm41.443,16.208l-41.326,0c-0.958,0 -1.737,-0.779 -1.737,-1.737l0,-13.76c0,-0.893 0.727,-1.62 1.62,-1.62l41.56,0c0.893,0 1.62,0.727 1.62,1.62l0,13.76c0,0.958 -0.779,1.737 -1.737,1.737Z" style="fill:#f74141;fill-rule:nonzero;"/><path d="M9.178,22.938c-0.405,0 -0.734,0.315 -0.76,0.712l-0.103,0l0,-1.15l0.905,0l0,0.44c-0.014,-0.001 -0.028,-0.002 -0.042,-0.002Z" style="fill:#f74141;fill-rule:nonzero;"/><path d="M50.491,22.938c0.404,0 0.734,0.315 0.76,0.712l0.102,0l0,-1.15l-0.904,0l0,0.44c0.014,-0.001 0.027,-0.002 0.042,-0.002Z" style="fill:#f74141;fill-rule:nonzero;"/><rect x="9.22" y="22.948" width="41.229" height="0.91" style="fill:#172b44;"/><path d="M11.451,15.551l-1.029,0l0,-0.735l3.041,0l0,0.735l-1.029,0l0,4.413l-0.983,0l0,-4.413Z" style="fill:#fff;fill-rule:nonzero;"/><path d="M11.541,19.873l0.803,0l0,-4.412l1.029,0l0,-0.555l-2.861,0l0,0.555l1.029,0l0,4.412Zm0.983,0.181l-1.164,0l0,-4.413l-1.028,0l0,-0.915l3.221,0l0,0.915l-1.029,0l0,4.413Z" style="fill:#fff;fill-rule:nonzero;"/><path d="M14.679,14.816l0.984,0l0,2.096l1.055,0l0,-2.096l0.984,0l0,5.148l-0.984,0l0,-2.317l-1.055,0l0,2.317l-0.984,0l0,-5.148Z" style="fill:#fff;fill-rule:nonzero;"/><path d="M16.809,19.873l0.803,0l0,-4.967l-0.803,0l0,2.096l-1.236,0l0,-2.096l-0.804,0l0,4.967l0.804,0l0,-2.316l1.236,0l0,2.316Zm0.983,0.181l-1.164,0l0,-2.317l-0.875,0l0,2.317l-1.164,0l0,-5.328l1.164,0l0,2.095l0.875,0l0,-2.095l1.164,0l0,5.328Z" style="fill:#fff;fill-rule:nonzero;"/><rect x="19.178" y="14.816" width="0.984" height="5.148" style="fill:#fff;"/><path d="M19.268,19.873l0.804,0l0,-4.967l-0.804,0l0,4.967Zm0.984,0.181l-1.164,0l0,-5.328l1.164,0l0,5.328Z" style="fill:#fff;fill-rule:nonzero;"/><path d="M21.834,19.702c-0.244,-0.222 -0.366,-0.543 -0.366,-0.959l0,-0.294l0.929,0l0,0.352c0,0.334 0.171,0.5 0.51,0.5c0.167,0 0.294,-0.04 0.381,-0.121c0.086,-0.081 0.129,-0.212 0.129,-0.393c0,-0.216 -0.059,-0.406 -0.179,-0.57c-0.119,-0.164 -0.34,-0.361 -0.661,-0.592c-0.406,-0.294 -0.689,-0.56 -0.85,-0.798c-0.161,-0.237 -0.242,-0.506 -0.242,-0.805c0,-0.407 0.126,-0.722 0.376,-0.945c0.25,-0.223 0.614,-0.335 1.091,-0.335c0.471,0 0.827,0.112 1.069,0.335c0.241,0.223 0.362,0.543 0.362,0.96l0,0.213l-0.93,0l0,-0.265c0,-0.177 -0.042,-0.305 -0.125,-0.386c-0.084,-0.081 -0.206,-0.121 -0.367,-0.121c-0.328,0 -0.492,0.164 -0.492,0.492c0,0.187 0.061,0.361 0.183,0.522c0.123,0.162 0.345,0.358 0.667,0.589c0.411,0.294 0.695,0.561 0.849,0.801c0.156,0.241 0.233,0.522 0.233,0.846c0,0.422 -0.127,0.745 -0.38,0.971c-0.253,0.225 -0.622,0.338 -1.105,0.338c-0.477,0 -0.837,-0.112 -1.082,-0.335Z" style="fill:#fff;fill-rule:nonzero;"/><path d="M21.558,18.539l0,0.204c0,0.388 0.113,0.689 0.337,0.893c0.226,0.206 0.57,0.311 1.021,0.311c0.458,0 0.81,-0.106 1.045,-0.315c0.236,-0.21 0.35,-0.506 0.35,-0.904c0,-0.304 -0.073,-0.572 -0.218,-0.797c-0.149,-0.229 -0.427,-0.491 -0.826,-0.777c-0.333,-0.238 -0.558,-0.437 -0.686,-0.607c-0.134,-0.177 -0.202,-0.371 -0.202,-0.577c0,-0.376 0.207,-0.583 0.582,-0.583c0.184,0 0.329,0.05 0.43,0.147c0.101,0.098 0.152,0.25 0.152,0.451l0,0.175l0.75,0l0,-0.123c0,-0.389 -0.112,-0.69 -0.333,-0.894c-0.224,-0.206 -0.563,-0.31 -1.008,-0.31c-0.452,0 -0.799,0.104 -1.031,0.311c-0.233,0.207 -0.345,0.494 -0.345,0.878c0,0.279 0.075,0.533 0.225,0.755c0.155,0.228 0.433,0.488 0.828,0.775c0.332,0.238 0.556,0.438 0.682,0.612c0.13,0.179 0.196,0.389 0.196,0.623c0,0.206 -0.053,0.361 -0.158,0.459c-0.103,0.097 -0.252,0.146 -0.442,0.146c-0.387,0 -0.599,-0.21 -0.599,-0.591l0,-0.262l-0.75,0Zm1.358,1.588c-0.498,0 -0.882,-0.12 -1.143,-0.358c-0.262,-0.24 -0.396,-0.585 -0.396,-1.026l0,-0.384l1.111,0l0,0.442c0,0.284 0.129,0.411 0.419,0.411c0.143,0 0.25,-0.033 0.319,-0.098c0.067,-0.063 0.101,-0.172 0.101,-0.327c0,-0.198 -0.053,-0.367 -0.161,-0.517c-0.114,-0.156 -0.33,-0.348 -0.642,-0.572c-0.413,-0.299 -0.706,-0.575 -0.872,-0.82c-0.171,-0.252 -0.257,-0.54 -0.257,-0.856c0,-0.432 0.137,-0.772 0.406,-1.013c0.266,-0.236 0.654,-0.357 1.151,-0.357c0.492,0 0.873,0.121 1.13,0.359c0.26,0.24 0.391,0.585 0.391,1.026l0,0.303l-1.11,0l0,-0.355c0,-0.15 -0.033,-0.258 -0.098,-0.321c-0.066,-0.064 -0.168,-0.096 -0.304,-0.096c-0.278,0 -0.401,0.124 -0.401,0.402c0,0.168 0.053,0.321 0.165,0.468c0.115,0.153 0.333,0.345 0.647,0.569c0.418,0.3 0.711,0.578 0.872,0.827c0.164,0.254 0.247,0.555 0.247,0.894c0,0.446 -0.138,0.796 -0.41,1.038c-0.269,0.24 -0.662,0.361 -1.165,0.361Z" style="fill:#fff;fill-rule:nonzero;"/><path d="M27.647,14.816l0.949,0l0.438,3.956l0.018,0l0.465,-3.956l1.073,0l0.465,3.956l0.018,0l0.438,-3.956l0.85,0l-0.635,5.148l-1.226,0l-0.447,-3.472l-0.017,0l-0.448,3.472l-1.305,0l-0.636,-5.148Z" style="fill:#fff;fill-rule:nonzero;"/><path d="M30.58,19.873l1.066,0l0.613,-4.967l-0.667,0l-0.438,3.956l-0.161,0l-0.027,-0.079l-0.456,-3.877l-0.913,0l-0.465,3.956l-0.161,0l-0.027,-0.08l-0.429,-3.876l-0.765,0l0.612,4.967l1.147,0l0.448,-3.47l0.158,0l0.028,0.078l0.437,3.392Zm1.226,0.181l-1.385,0l-0.377,-2.925l-0.377,2.925l-1.464,0l-0.658,-5.328l1.131,0l0.369,3.329l0.392,-3.329l1.233,0l0.392,3.33l0.369,-3.33l1.032,0l-0.657,5.328Z" style="fill:#fff;fill-rule:nonzero;"/><path d="M35.536,18.794l0,-2.809c0,-0.338 -0.17,-0.507 -0.51,-0.507c-0.34,0 -0.51,0.169 -0.51,0.507l0,2.809c0,0.338 0.17,0.507 0.51,0.507c0.34,0 0.51,-0.169 0.51,-0.507Zm-1.619,0.905c-0.256,-0.226 -0.385,-0.545 -0.385,-0.956l0,-2.706c0,-0.412 0.129,-0.731 0.385,-0.957c0.256,-0.225 0.626,-0.338 1.109,-0.338c0.483,0 0.852,0.113 1.109,0.338c0.257,0.226 0.385,0.545 0.385,0.957l0,2.706c0,0.411 -0.128,0.73 -0.385,0.956c-0.257,0.225 -0.626,0.338 -1.109,0.338c-0.483,0 -0.853,-0.113 -1.109,-0.338Z" style="fill:#fff;fill-rule:nonzero;"/><path d="M35.026,15.568c-0.29,0 -0.42,0.128 -0.42,0.417l0,2.809c0,0.289 0.13,0.418 0.42,0.418c0.29,0 0.42,-0.129 0.42,-0.418l0,-2.809c0,-0.289 -0.13,-0.417 -0.42,-0.417Zm0,3.824c-0.387,0 -0.6,-0.213 -0.6,-0.598l0,-2.809c0,-0.385 0.213,-0.598 0.6,-0.598c0.387,0 0.6,0.213 0.6,0.598l0,2.809c0,0.385 -0.213,0.598 -0.6,0.598Zm0,-4.559c-0.458,0 -0.811,0.106 -1.049,0.315c-0.239,0.21 -0.354,0.501 -0.354,0.889l0,2.706c0,0.388 0.115,0.679 0.354,0.888c0.238,0.209 0.591,0.316 1.049,0.316c0.458,0 0.811,-0.107 1.05,-0.316c0.238,-0.209 0.354,-0.5 0.354,-0.888l0,-2.706c0,-0.388 -0.116,-0.679 -0.354,-0.889c-0.239,-0.209 -0.592,-0.315 -1.05,-0.315Zm0,5.294c-0.503,0 -0.896,-0.121 -1.169,-0.361l0,0.001c-0.275,-0.243 -0.415,-0.587 -0.415,-1.024l0,-2.706c0,-0.437 0.14,-0.782 0.415,-1.024c0.273,-0.239 0.666,-0.361 1.169,-0.361c0.503,0 0.896,0.122 1.169,0.361c0.275,0.243 0.415,0.587 0.415,1.024l0,2.706c0,0.437 -0.14,0.781 -0.415,1.023c-0.273,0.24 -0.666,0.361 -1.169,0.361Z" style="fill:#fff;fill-rule:nonzero;"/><path d="M39.266,17.022c0.196,0 0.344,-0.041 0.442,-0.125c0.099,-0.083 0.148,-0.223 0.148,-0.419l0,-0.397c0,-0.187 -0.041,-0.322 -0.121,-0.405c-0.08,-0.083 -0.207,-0.125 -0.38,-0.125l-0.447,0l0,1.471l0.358,0Zm-1.342,-2.206l1.458,0c0.507,0 0.876,0.097 1.109,0.291c0.232,0.193 0.349,0.491 0.349,0.893l0,0.316c0,0.534 -0.215,0.873 -0.644,1.015l0,0.014c0.238,0.059 0.407,0.18 0.505,0.361c0.098,0.181 0.148,0.424 0.148,0.728l0,0.905c0,0.147 0.005,0.266 0.017,0.356c0.012,0.091 0.042,0.18 0.09,0.269l-1.002,0c-0.036,-0.084 -0.059,-0.162 -0.071,-0.236c-0.012,-0.074 -0.018,-0.206 -0.018,-0.397l0,-0.941c0,-0.236 -0.047,-0.4 -0.139,-0.493c-0.093,-0.093 -0.252,-0.14 -0.478,-0.14l-0.34,0l0,2.207l-0.984,0l0,-5.148Z" style="fill:#fff;fill-rule:nonzero;"/><path d="M38.998,16.932l0.268,0c0.173,0 0.303,-0.035 0.384,-0.104c0.077,-0.065 0.116,-0.183 0.116,-0.35l0,-0.397c0,-0.161 -0.033,-0.277 -0.096,-0.342c-0.062,-0.065 -0.169,-0.098 -0.315,-0.098l-0.357,0l0,1.291Zm0.268,0.18l-0.449,0l0,-1.651l0.538,0c0.197,0 0.347,0.051 0.445,0.152c0.097,0.101 0.146,0.258 0.146,0.468l0,0.397c0,0.222 -0.061,0.387 -0.179,0.488c-0.115,0.097 -0.284,0.146 -0.501,0.146Zm0.749,2.761l0.802,0c-0.019,-0.055 -0.032,-0.11 -0.04,-0.166c-0.012,-0.095 -0.019,-0.218 -0.019,-0.368l0,-0.905c0,-0.287 -0.046,-0.518 -0.136,-0.685c-0.087,-0.159 -0.233,-0.263 -0.448,-0.316l-0.069,-0.017l0,-0.136l0.062,-0.035c0.392,-0.13 0.583,-0.433 0.583,-0.929l0,-0.316c0,-0.372 -0.107,-0.65 -0.317,-0.825c-0.215,-0.178 -0.569,-0.269 -1.051,-0.269l-1.368,0l0,4.967l0.803,0l0,-2.206l0.431,0c0.253,0 0.431,0.055 0.542,0.167c0.111,0.111 0.165,0.294 0.165,0.556l0,0.941c0,0.185 0.005,0.314 0.017,0.383c0.007,0.049 0.022,0.103 0.043,0.159Zm1.092,0.181l-1.212,0l-0.024,-0.055c-0.038,-0.09 -0.064,-0.177 -0.078,-0.257c-0.012,-0.078 -0.019,-0.213 -0.019,-0.411l0,-0.941c0,-0.21 -0.037,-0.354 -0.112,-0.43c-0.075,-0.075 -0.214,-0.113 -0.414,-0.113l-0.25,0l0,2.207l-1.164,0l0,-5.328l1.548,0c0.526,0 0.918,0.104 1.166,0.311c0.254,0.211 0.382,0.535 0.382,0.963l0,0.316c0,0.487 -0.171,0.827 -0.507,1.014c0.158,0.075 0.278,0.187 0.357,0.333c0.105,0.194 0.158,0.453 0.158,0.771l0,0.905c0,0.142 0.006,0.258 0.018,0.344c0.01,0.08 0.037,0.16 0.079,0.238l0.072,0.133Z" style="fill:#fff;fill-rule:nonzero;"/><path d="M42.27,14.816l0.984,0l0,4.412l1.619,0l0,0.736l-2.603,0l0,-5.148Z" style="fill:#fff;fill-rule:nonzero;"/><path d="M42.361,19.873l2.422,0l0,-0.555l-1.619,0l0,-4.412l-0.803,0l0,4.967Zm2.602,0.181l-2.782,0l0,-5.328l1.163,0l0,4.412l1.619,0l0,0.916Z" style="fill:#fff;fill-rule:nonzero;"/><path d="M47.574,19.228c0.161,0 0.285,-0.039 0.371,-0.117c0.087,-0.079 0.13,-0.207 0.13,-0.383l0,-2.677c0,-0.176 -0.043,-0.304 -0.13,-0.382c-0.086,-0.079 -0.21,-0.118 -0.371,-0.118l-0.501,0l0,3.677l0.501,0Zm-1.485,-4.412l1.503,0c0.489,0 0.856,0.108 1.1,0.323c0.245,0.216 0.367,0.533 0.367,0.949l0,2.603c0,0.417 -0.122,0.733 -0.367,0.949c-0.244,0.216 -0.611,0.324 -1.1,0.324l-1.503,0l0,-5.148Z" style="fill:#fff;fill-rule:nonzero;"/><path d="M47.164,19.138l0.41,0c0.137,0 0.242,-0.032 0.311,-0.094c0.066,-0.06 0.1,-0.167 0.1,-0.316l0,-2.677c0,-0.149 -0.034,-0.255 -0.1,-0.315c-0.069,-0.063 -0.174,-0.095 -0.311,-0.095l-0.41,0l0,3.497Zm0.41,0.18l-0.591,0l0,-3.857l0.591,0c0.183,0 0.329,0.047 0.432,0.141c0.106,0.096 0.159,0.247 0.159,0.449l0,2.677c0,0.202 -0.053,0.353 -0.159,0.449c-0.103,0.094 -0.248,0.141 -0.432,0.141Zm-1.394,0.555l1.412,0c0.464,0 0.814,-0.101 1.04,-0.301c0.224,-0.196 0.337,-0.493 0.337,-0.881l0,-2.603c0,-0.388 -0.113,-0.684 -0.337,-0.881c-0.226,-0.2 -0.576,-0.301 -1.04,-0.301l-1.412,0l0,4.967Zm1.412,0.181l-1.592,0l0,-5.328l1.592,0c0.51,0 0.9,0.116 1.16,0.346c0.264,0.232 0.397,0.574 0.397,1.016l0,2.603c0,0.442 -0.133,0.784 -0.397,1.017c-0.26,0.229 -0.65,0.346 -1.16,0.346Z" style="fill:#fff;fill-rule:nonzero;"/><path d="M21.917,12.065l0,-2.644c0,-0.319 -0.159,-0.478 -0.48,-0.478c-0.319,0 -0.479,0.159 -0.479,0.478l0,2.644c0,0.318 0.16,0.477 0.479,0.477c0.321,0 0.48,-0.159 0.48,-0.477Zm-1.523,0.851c-0.242,-0.212 -0.362,-0.513 -0.362,-0.9l0,-2.547c0,-0.387 0.12,-0.688 0.362,-0.899c0.241,-0.213 0.589,-0.319 1.043,-0.319c0.456,0 0.803,0.106 1.044,0.319c0.242,0.211 0.363,0.512 0.363,0.899l0,2.547c0,0.387 -0.121,0.688 -0.363,0.9c-0.241,0.212 -0.588,0.318 -1.044,0.318c-0.454,0 -0.802,-0.106 -1.043,-0.318Z" style="fill:#fff;fill-rule:nonzero;"/><path d="M21.437,9.033c-0.269,0 -0.389,0.12 -0.389,0.388l0,2.644c0,0.267 0.12,0.387 0.389,0.387c0.27,0 0.39,-0.12 0.39,-0.387l0,-2.644c0,-0.268 -0.12,-0.388 -0.39,-0.388Zm0,3.599c-0.367,0 -0.569,-0.201 -0.569,-0.567l0,-2.644c0,-0.367 0.202,-0.568 0.569,-0.568c0.368,0 0.571,0.201 0.571,0.568l0,2.644c0,0.366 -0.203,0.567 -0.571,0.567Zm0,-4.291c-0.429,0 -0.76,0.1 -0.984,0.296c-0.223,0.196 -0.331,0.468 -0.331,0.832l0,2.547c0,0.364 0.108,0.636 0.331,0.832c0.224,0.197 0.555,0.296 0.984,0.296c0.431,0 0.762,-0.099 0.985,-0.296c0.223,-0.196 0.331,-0.468 0.331,-0.832l0,-2.547c0,-0.364 -0.108,-0.636 -0.331,-0.832c-0.224,-0.196 -0.555,-0.296 -0.985,-0.296Zm0,4.983c-0.474,0 -0.846,-0.114 -1.103,-0.34c-0.26,-0.229 -0.392,-0.555 -0.392,-0.968l0,-2.547c0,-0.413 0.132,-0.738 0.392,-0.967c0.258,-0.226 0.629,-0.341 1.103,-0.341c0.475,0 0.847,0.115 1.104,0.341c0.26,0.229 0.393,0.554 0.393,0.967l0,2.547c0,0.413 -0.133,0.739 -0.393,0.968c-0.257,0.226 -0.628,0.34 -1.104,0.34Z" style="fill:#fff;fill-rule:nonzero;"/><path d="M24.333,12.919c-0.235,-0.209 -0.353,-0.511 -0.353,-0.903l0,-3.696l0.926,0l0,3.751c0,0.166 0.04,0.287 0.122,0.36c0.081,0.074 0.198,0.111 0.349,0.111c0.152,0 0.268,-0.037 0.35,-0.111c0.081,-0.073 0.122,-0.194 0.122,-0.36l0,-3.751l0.892,0l0,3.696c0,0.392 -0.118,0.694 -0.354,0.903c-0.235,0.21 -0.577,0.315 -1.027,0.315c-0.449,0 -0.791,-0.105 -1.027,-0.315Z" style="fill:#fff;fill-rule:nonzero;"/><path d="M24.07,8.41l0,3.606c0,0.369 0.106,0.642 0.323,0.836l0.001,0c0.217,0.194 0.542,0.292 0.966,0.292c0.425,0 0.75,-0.098 0.967,-0.292c0.218,-0.194 0.324,-0.467 0.324,-0.836l0,-3.606l-0.712,0l0,3.661c0,0.192 -0.051,0.336 -0.152,0.427c-0.098,0.089 -0.236,0.134 -0.41,0.134c-0.174,0 -0.312,-0.045 -0.41,-0.134c-0.1,-0.091 -0.152,-0.235 -0.152,-0.427l0,-3.661l-0.745,0Zm1.29,4.914c-0.469,0 -0.835,-0.113 -1.087,-0.338c-0.254,-0.226 -0.383,-0.553 -0.383,-0.97l0,-3.786l1.106,0l0,3.841c0,0.139 0.031,0.238 0.092,0.294c0.064,0.058 0.161,0.087 0.289,0.087c0.128,0 0.225,-0.029 0.289,-0.087c0.062,-0.056 0.092,-0.155 0.092,-0.294l0,-3.841l1.073,0l0,3.786c0,0.417 -0.129,0.744 -0.384,0.97c-0.251,0.225 -0.617,0.338 -1.087,0.338Z" style="fill:#fff;fill-rule:nonzero;"/><path d="M28.668,9.012l-0.967,0l0,-0.692l2.861,0l0,0.692l-0.967,0l0,4.153l-0.927,0l0,-4.153Z" style="fill:#fff;fill-rule:nonzero;"/><path d="M28.758,13.075l0.746,0l0,-4.153l0.968,0l0,-0.512l-2.681,0l0,0.512l0.967,0l0,4.153Zm0.927,0.18l-1.107,0l0,-4.153l-0.968,0l0,-0.872l3.042,0l0,0.872l-0.967,0l0,4.153Z" style="fill:#fff;fill-rule:nonzero;"/><path d="M35.268,12.065l0,-2.644c0,-0.319 -0.16,-0.478 -0.48,-0.478c-0.32,0 -0.48,0.159 -0.48,0.478l0,2.644c0,0.318 0.16,0.477 0.48,0.477c0.32,0 0.48,-0.159 0.48,-0.477Zm-1.524,0.851c-0.241,-0.212 -0.362,-0.513 -0.362,-0.9l0,-2.547c0,-0.387 0.121,-0.688 0.362,-0.899c0.241,-0.213 0.589,-0.319 1.044,-0.319c0.455,0 0.802,0.106 1.044,0.319c0.241,0.211 0.362,0.512 0.362,0.899l0,2.547c0,0.387 -0.121,0.688 -0.362,0.9c-0.242,0.212 -0.589,0.318 -1.044,0.318c-0.455,0 -0.803,-0.106 -1.044,-0.318Z" style="fill:#fff;fill-rule:nonzero;"/><path d="M34.788,9.033c-0.269,0 -0.39,0.12 -0.39,0.388l0,2.644c0,0.267 0.121,0.387 0.39,0.387c0.27,0 0.39,-0.12 0.39,-0.387l0,-2.644c0,-0.268 -0.12,-0.388 -0.39,-0.388Zm0,3.599c-0.368,0 -0.57,-0.201 -0.57,-0.567l0,-2.644c0,-0.367 0.202,-0.568 0.57,-0.568c0.368,0 0.57,0.201 0.57,0.568l0,2.644c0,0.366 -0.202,0.567 -0.57,0.567Zm0,-4.291c-0.43,0 -0.761,0.1 -0.984,0.296c-0.223,0.196 -0.331,0.468 -0.331,0.832l0,2.547c0,0.364 0.108,0.636 0.331,0.832c0.223,0.197 0.554,0.296 0.984,0.296c0.43,0 0.761,-0.099 0.984,-0.296c0.223,-0.196 0.332,-0.468 0.332,-0.832l0,-2.547c0,-0.364 -0.109,-0.636 -0.332,-0.832c-0.223,-0.196 -0.554,-0.296 -0.984,-0.296Zm0,4.983c-0.475,0 -0.846,-0.114 -1.103,-0.34c-0.261,-0.229 -0.393,-0.555 -0.393,-0.968l0,-2.547c0,-0.413 0.132,-0.738 0.393,-0.967c0.257,-0.226 0.628,-0.341 1.103,-0.341c0.475,0 0.846,0.115 1.103,0.341c0.261,0.229 0.393,0.554 0.393,0.967l0,2.547c0,0.413 -0.132,0.739 -0.393,0.968c-0.257,0.226 -0.628,0.34 -1.103,0.34Z" style="fill:#fff;fill-rule:nonzero;"/><path d="M37.364,8.32l2.449,0l0,0.692l-1.523,0l0,1.35l1.195,0l0,0.692l-1.195,0l0,2.111l-0.926,0l0,-4.845Z" style="fill:#fff;fill-rule:nonzero;"/><path d="M37.454,13.075l0.746,0l0,-2.111l1.195,0l0,-0.512l-1.195,0l0,-1.53l1.523,0l0,-0.512l-2.269,0l0,4.665Zm0.926,0.18l-1.106,0l0,-5.025l2.63,0l0,0.872l-1.524,0l0,1.17l1.195,0l0,0.872l-1.195,0l0,2.111Z" style="fill:#fff;fill-rule:nonzero;"/><path d="M18.004,10.917l-7.388,0c-0.179,0 -0.325,-0.145 -0.325,-0.325c0,-0.179 0.146,-0.324 0.325,-0.324l7.388,0c0.179,0 0.325,0.145 0.325,0.324c0,0.18 -0.146,0.325 -0.325,0.325Z" style="fill:#f74141;fill-rule:nonzero;"/><path d="M48.983,10.917l-7.388,0c-0.179,0 -0.325,-0.145 -0.325,-0.325c0,-0.179 0.146,-0.324 0.325,-0.324l7.388,0c0.179,0 0.325,0.145 0.325,0.324c0,0.18 -0.146,0.325 -0.325,0.325Z" style="fill:#f74141;fill-rule:nonzero;"/><path d="M31.44,26.384c0,0.281 -0.227,0.508 -0.508,0.508c-0.281,0 -0.508,-0.227 -0.508,-0.508c0,-0.28 0.227,-0.508 0.508,-0.508c0.281,0 0.508,0.228 0.508,0.508Z" style="fill:#5ec5ea;fill-rule:nonzero;"/><path d="M38.15,43.972c0,0.281 -0.228,0.508 -0.508,0.508c-0.281,0 -0.509,-0.227 -0.509,-0.508c0,-0.281 0.228,-0.508 0.509,-0.508c0.28,0 0.508,0.227 0.508,0.508Z" style="fill:#5ec5ea;fill-rule:nonzero;"/><path d="M20.026,28.469c0,0.28 -0.228,0.508 -0.508,0.508c-0.281,0 -0.509,-0.228 -0.509,-0.508c0,-0.281 0.228,-0.509 0.509,-0.509c0.28,0 0.508,0.228 0.508,0.509Z" style="fill:#5ec5ea;fill-rule:nonzero;"/><path d="M47.374,53.02c0,0.281 -0.228,0.508 -0.509,0.508c-0.281,0 -0.508,-0.227 -0.508,-0.508c0,-0.281 0.227,-0.509 0.508,-0.509c0.281,0 0.509,0.228 0.509,0.509Z" style="fill:#5ec5ea;fill-rule:nonzero;"/><path d="M19.009,26.384c0,0.134 -0.109,0.243 -0.243,0.243c-0.134,0 -0.243,-0.109 -0.243,-0.243c0,-0.134 0.109,-0.243 0.243,-0.243c0.134,0 0.243,0.109 0.243,0.243Z" style="fill:#5ec5ea;fill-rule:nonzero;"/><path d="M44.109,50.715c0,0.135 -0.109,0.244 -0.243,0.244c-0.134,0 -0.243,-0.109 -0.243,-0.244c0,-0.133 0.109,-0.243 0.243,-0.243c0.134,0 0.243,0.11 0.243,0.243Z" style="fill:#5ec5ea;fill-rule:nonzero;"/><path d="M48.799,57.003c0,0.097 -0.08,0.176 -0.177,0.176c-0.099,0 -0.178,-0.079 -0.178,-0.176c0,-0.099 0.079,-0.178 0.178,-0.178c0.097,0 0.177,0.079 0.177,0.178Z" style="fill:#5ec5ea;fill-rule:nonzero;"/><path d="M32.888,33.572c0,0.097 -0.079,0.177 -0.177,0.177c-0.098,0 -0.177,-0.08 -0.177,-0.177c0,-0.099 0.079,-0.178 0.177,-0.178c0.098,0 0.177,0.079 0.177,0.178Z" style="fill:#5ec5ea;fill-rule:nonzero;"/><path d="M11.539,33.572c0,0.097 -0.08,0.177 -0.177,0.177c-0.098,0 -0.177,-0.08 -0.177,-0.177c0,-0.099 0.079,-0.178 0.177,-0.178c0.097,0 0.177,0.079 0.177,0.178Z" style="fill:#5ec5ea;fill-rule:nonzero;"/><path d="M37.998,55.457c0,0.197 -0.16,0.356 -0.356,0.356c-0.197,0 -0.356,-0.159 -0.356,-0.356c0,-0.196 0.159,-0.356 0.356,-0.356c0.196,0 0.356,0.16 0.356,0.356Z" style="fill:#5ec5ea;fill-rule:nonzero;"/><path d="M28.082,29.993c0,0.217 -0.176,0.392 -0.392,0.392c-0.216,0 -0.392,-0.175 -0.392,-0.392c0,-0.216 0.176,-0.391 0.392,-0.391c0.216,0 0.392,0.175 0.392,0.391Z" style="fill:#5ec5ea;fill-rule:nonzero;"/><path d="M35.61,65.98c0,0.217 -0.175,0.392 -0.391,0.392c-0.217,0 -0.392,-0.175 -0.392,-0.392c0,-0.216 0.175,-0.391 0.392,-0.391c0.216,0 0.391,0.175 0.391,0.391Z" style="fill:#5ec5ea;fill-rule:nonzero;"/><path d="M11.848,26.627c0,0.134 -0.109,0.243 -0.243,0.243c-0.134,0 -0.243,-0.109 -0.243,-0.243c0,-0.134 0.109,-0.243 0.243,-0.243c0.134,0 0.243,0.109 0.243,0.243Z" style="fill:#5ec5ea;fill-rule:nonzero;"/><path d="M15.265,33.094c0,0.134 -0.109,0.243 -0.244,0.243c-0.134,0 -0.243,-0.109 -0.243,-0.243c0,-0.134 0.109,-0.243 0.243,-0.243c0.135,0 0.244,0.109 0.244,0.243Z" style="fill:#5ec5ea;fill-rule:nonzero;"/><path d="M24.364,34.02c0,0.135 -0.109,0.243 -0.243,0.243c-0.135,0 -0.244,-0.108 -0.244,-0.243c0,-0.134 0.109,-0.243 0.244,-0.243c0.134,0 0.243,0.109 0.243,0.243Z" style="fill:#5ec5ea;fill-rule:nonzero;"/><path d="M36.642,53.528c0,0.135 -0.109,0.243 -0.243,0.243c-0.134,0 -0.243,-0.108 -0.243,-0.243c0,-0.134 0.109,-0.243 0.243,-0.243c0.134,0 0.243,0.109 0.243,0.243Z" style="fill:#5ec5ea;fill-rule:nonzero;"/><path d="M37.128,64.559c0,0.134 -0.108,0.243 -0.243,0.243c-0.134,0 -0.243,-0.109 -0.243,-0.243c0,-0.135 0.109,-0.243 0.243,-0.243c0.135,0 0.243,0.108 0.243,0.243Z" style="fill:#5ec5ea;fill-rule:nonzero;"/><path d="M45.114,61.865c0,0.134 -0.109,0.243 -0.243,0.243c-0.134,0 -0.243,-0.109 -0.243,-0.243c0,-0.135 0.109,-0.243 0.243,-0.243c0.134,0 0.243,0.108 0.243,0.243Z" style="fill:#5ec5ea;fill-rule:nonzero;"/><path d="M37.62,39.487c0,0.134 -0.109,0.243 -0.244,0.243c-0.134,0 -0.243,-0.109 -0.243,-0.243c0,-0.135 0.109,-0.243 0.243,-0.243c0.135,0 0.244,0.108 0.244,0.243Z" style="fill:#5ec5ea;fill-rule:nonzero;"/><path d="M31.944,33.094c0,0.166 -0.134,0.3 -0.3,0.3c-0.166,0 -0.3,-0.134 -0.3,-0.3c0,-0.166 0.134,-0.3 0.3,-0.3c0.166,0 0.3,0.134 0.3,0.3Z" style="fill:#5ec5ea;fill-rule:nonzero;"/><path d="M13.037,24.91c0,0.221 -0.179,0.4 -0.4,0.4c-0.221,0 -0.399,-0.179 -0.399,-0.4c0,-0.221 0.178,-0.4 0.399,-0.4c0.221,0 0.4,0.179 0.4,0.4Z" style="fill:#5ec5ea;fill-rule:nonzero;"/><path d="M41.848,55.527l-2.892,2.042c-0.216,0.152 -0.216,0.473 0,0.625l2.892,2.042c0.132,0.094 0.309,0.094 0.441,0l2.892,-2.042c0.216,-0.152 0.216,-0.473 0,-0.625l-2.892,-2.042c-0.132,-0.093 -0.309,-0.093 -0.441,0Z" style="fill:#fff;fill-rule:nonzero;"/><path d="M42.068,55.009c-0.172,0 -0.338,0.052 -0.479,0.151l-2.892,2.043c-0.22,0.155 -0.352,0.409 -0.352,0.679c0,0.269 0.132,0.523 0.352,0.678l2.892,2.042c0.282,0.199 0.677,0.199 0.959,0.001l2.892,-2.043c0.221,-0.155 0.352,-0.409 0.352,-0.678c0,-0.27 -0.131,-0.524 -0.352,-0.679l-2.892,-2.042c-0.141,-0.1 -0.307,-0.152 -0.48,-0.152Zm0,6.013c-0.228,0 -0.447,-0.07 -0.633,-0.201l-2.892,-2.043c-0.291,-0.205 -0.465,-0.54 -0.465,-0.896c0,-0.357 0.174,-0.692 0.465,-0.897l2.892,-2.043c0.373,-0.263 0.895,-0.263 1.267,0l2.892,2.043c0.291,0.205 0.465,0.54 0.465,0.897c0,0.356 -0.174,0.691 -0.465,0.896l-2.892,2.043c-0.186,0.131 -0.405,0.201 -0.634,0.201Z" style="fill:#fff;fill-rule:nonzero;"/><path d="M40.56,56.826l0.565,0l0.367,1.762l0.01,0l0.367,-1.762l0.514,0l-0.539,2.271l-0.744,0l-0.54,-2.271Z" style="fill:#172b44;fill-rule:nonzero;"/><rect x="42.806" y="56.826" width="0.56" height="2.271" style="fill:#172b44;"/></svg>